<svg id="svg" version="1.1" xmlns="http://www.w3.org/2000/svg" xmlns:xlink="http://www.w3.org/1999/xlink" width="400" height="492.3946110386788" viewBox="0, 0, 400,492.3946110386788"><g id="svgg"><path id="path0" d="M0.000 246.280 L 0.000 492.560 200.000 492.560 L 400.000 492.560 400.000 246.280 L 400.000 0.000 200.000 0.000 L 0.000 0.000 0.000 246.280 M394.664 246.691 L 394.664 487.224 200.000 487.224 L 5.336 487.224 5.336 246.691 L 5.336 6.157 200.000 6.157 L 394.664 6.157 394.664 246.691 M82.606 77.902 C 72.721 80.366,65.386 82.306,65.275 82.487 C 65.200 82.608,64.976 84.301,64.777 86.249 C 64.342 90.522,63.359 99.870,62.799 105.080 C 62.408 108.712,62.239 110.359,61.065 122.011 C 60.781 124.833,60.501 127.465,60.443 127.860 C 60.385 128.256,60.102 130.888,59.815 133.710 C 59.528 136.532,59.019 141.473,58.684 144.690 C 58.349 147.907,57.893 152.340,57.671 154.541 C 57.448 156.742,57.082 160.251,56.858 162.340 C 56.633 164.428,56.220 168.353,55.939 171.062 C 55.658 173.771,55.148 178.666,54.805 181.939 C 54.184 187.883,53.706 192.474,52.544 203.694 C 52.205 206.968,51.697 211.816,51.415 214.469 C 51.133 217.122,50.758 220.723,50.580 222.473 C 50.403 224.223,50.081 227.358,49.866 229.440 C 49.407 233.859,49.302 233.555,51.051 232.885 C 51.813 232.593,53.361 232.010,54.489 231.590 C 55.618 231.170,58.851 229.955,61.673 228.891 C 64.495 227.826,68.189 226.600,69.882 226.166 C 71.575 225.732,74.069 225.088,75.423 224.734 C 76.778 224.380,79.271 223.732,80.965 223.294 C 82.658 222.856,85.151 222.208,86.506 221.855 C 87.860 221.501,90.539 220.808,92.458 220.314 C 94.377 219.821,97.009 219.141,98.307 218.804 C 99.605 218.467,101.914 217.867,103.438 217.472 C 106.800 216.599,110.922 215.530,114.572 214.586 C 116.067 214.200,118.538 213.558,120.062 213.162 C 121.585 212.765,124.125 212.105,125.705 211.696 C 127.286 211.287,129.641 210.676,130.939 210.338 C 132.237 210.000,134.869 209.321,136.788 208.828 C 138.707 208.336,141.528 207.606,143.056 207.206 C 149.947 205.404,150.469 205.286,150.540 205.516 C 150.579 205.643,150.810 206.670,151.053 207.799 C 151.297 208.928,152.002 212.160,152.621 214.982 C 153.240 217.804,153.967 221.129,154.237 222.370 C 158.234 240.753,171.786 260.265,184.813 266.392 C 203.694 275.272,237.454 267.558,255.273 250.294 C 260.015 245.699,263.725 236.233,263.725 228.729 C 263.725 226.671,263.736 226.619,264.222 226.497 C 264.496 226.429,264.998 226.094,265.338 225.754 L 265.956 225.136 265.452 220.675 C 264.480 212.087,263.019 204.713,260.785 197.127 C 260.164 195.016,258.646 188.992,255.382 175.680 C 254.634 172.631,254.074 170.562,252.103 163.571 C 249.781 155.333,248.679 151.415,246.793 144.690 C 246.270 142.827,245.347 139.548,244.742 137.404 C 243.299 132.295,241.900 127.325,241.045 124.269 C 240.666 122.914,239.934 120.305,239.418 118.471 C 238.903 116.637,238.061 113.635,237.547 111.801 C 235.908 105.951,235.758 105.490,235.501 105.490 C 235.275 105.490,226.916 107.822,221.550 109.382 C 220.421 109.710,218.620 110.221,217.547 110.518 C 216.475 110.815,214.651 111.329,213.494 111.660 C 212.337 111.992,210.444 112.534,209.287 112.865 C 208.130 113.196,206.306 113.710,205.233 114.007 C 204.161 114.304,202.360 114.812,201.231 115.135 C 200.103 115.458,198.163 116.008,196.921 116.356 C 194.084 117.152,191.772 117.809,189.020 118.599 C 187.835 118.940,184.187 119.975,180.913 120.899 C 173.284 123.055,163.350 125.869,161.108 126.511 C 159.006 127.113,155.485 128.110,153.104 128.778 C 152.145 129.048,150.367 129.552,149.153 129.898 C 146.507 130.654,143.173 131.599,140.790 132.267 C 136.283 133.532,130.864 135.099,130.770 135.164 C 130.734 135.189,131.319 136.627,132.070 138.359 C 132.822 140.091,133.488 141.647,133.550 141.816 C 133.793 142.478,132.504 140.923,129.466 136.891 C 122.771 128.005,107.301 107.537,103.950 103.130 C 102.920 101.775,99.811 97.665,97.042 93.997 C 87.583 81.466,85.480 78.691,84.967 78.067 L 84.454 77.442 82.606 77.902 M352.078 145.640 C 350.498 146.034,346.757 146.959,343.766 147.697 C 338.380 149.025,337.790 149.181,333.402 150.436 C 332.160 150.791,330.359 151.305,329.400 151.579 C 328.440 151.854,324.885 152.863,321.498 153.822 C 318.112 154.781,314.556 155.790,313.597 156.065 C 312.637 156.339,310.836 156.851,309.595 157.202 C 308.353 157.554,306.414 158.105,305.285 158.429 C 304.156 158.752,302.401 159.250,301.385 159.535 C 300.369 159.820,298.522 160.343,297.281 160.698 C 293.066 161.902,291.540 162.335,287.532 163.468 C 285.331 164.091,282.606 164.865,281.478 165.189 C 280.349 165.513,278.594 166.014,277.578 166.302 C 276.562 166.590,274.761 167.103,273.576 167.442 C 272.391 167.782,270.544 168.302,269.472 168.599 C 268.399 168.896,266.575 169.410,265.418 169.742 C 263.042 170.422,259.861 171.331,257.546 171.993 L 255.984 172.439 256.455 174.418 C 257.846 180.264,261.740 195.766,262.261 197.537 C 264.752 205.997,267.419 220.372,267.419 225.333 C 267.419 226.000,266.431 227.193,265.878 227.193 C 265.311 227.193,265.128 226.940,280.476 247.441 C 288.576 258.259,300.961 274.805,307.998 284.209 C 317.995 297.569,320.869 301.282,321.145 301.194 C 321.339 301.133,323.438 300.482,325.808 299.748 C 328.179 299.014,332.110 297.796,334.544 297.041 L 338.970 295.667 339.523 290.830 C 340.288 284.131,340.837 279.232,341.293 275.013 C 341.742 270.861,342.337 265.484,343.043 259.210 C 343.316 256.783,343.824 252.165,344.171 248.948 C 344.518 245.731,344.985 241.529,345.209 239.610 C 345.432 237.691,345.750 234.828,345.916 233.248 C 346.081 231.668,346.402 228.712,346.629 226.680 C 346.857 224.649,347.274 220.908,347.557 218.368 C 347.840 215.829,348.304 211.673,348.588 209.133 C 348.872 206.593,349.427 201.560,349.820 197.948 C 350.698 189.893,351.457 183.064,351.987 178.450 C 352.207 176.532,352.525 173.622,352.694 171.986 C 352.862 170.349,353.180 167.440,353.401 165.521 C 353.621 163.602,354.037 159.908,354.325 157.311 C 354.613 154.715,355.033 150.929,355.259 148.897 C 355.485 146.865,355.669 145.133,355.669 145.049 C 355.670 144.794,355.083 144.890,352.078 145.640 M60.951 339.880 C 56.226 340.382,51.608 343.766,48.839 348.756 C 46.335 353.268,46.355 354.949,48.978 360.287 C 50.272 362.919,54.097 366.027,56.564 366.449 C 57.003 366.524,58.332 366.851,59.518 367.175 C 60.703 367.499,62.587 367.862,63.706 367.981 C 65.414 368.163,65.810 368.275,66.184 368.679 C 66.753 369.292,67.585 369.549,69.862 369.815 C 70.911 369.938,71.832 370.158,72.024 370.332 C 72.209 370.499,72.707 370.781,73.131 370.958 C 73.555 371.135,73.954 371.417,74.018 371.584 C 74.083 371.751,74.448 372.201,74.830 372.583 C 75.702 373.454,75.748 374.569,75.029 377.322 L 74.547 379.169 73.138 379.539 C 70.940 380.118,65.895 380.231,61.981 379.790 C 58.484 379.396,57.912 379.207,54.739 377.391 C 53.730 376.813,52.478 376.179,51.957 375.982 L 51.010 375.622 50.614 376.267 C 49.485 378.108,46.178 383.864,46.178 383.988 C 46.178 384.067,46.570 384.247,47.050 384.386 C 47.914 384.638,53.226 386.680,55.428 387.606 C 59.524 389.328,66.934 389.757,72.447 388.589 C 77.981 387.417,78.447 387.273,79.323 386.462 C 79.774 386.044,80.790 385.259,81.580 384.717 C 82.946 383.781,84.128 382.655,84.140 382.279 C 84.143 382.184,84.707 380.853,85.393 379.321 C 87.206 375.275,87.383 372.795,86.087 369.558 C 85.223 367.400,81.671 364.212,78.840 363.054 C 78.090 362.746,76.921 362.213,76.244 361.867 C 74.394 360.924,72.071 360.209,69.726 359.861 C 67.303 359.501,66.278 359.247,62.971 358.184 C 58.006 356.588,56.702 352.176,60.544 349.973 C 61.052 349.681,61.616 349.317,61.798 349.164 C 62.471 348.596,63.443 348.520,67.778 348.694 C 73.782 348.936,76.334 349.501,80.645 351.543 C 81.373 351.887,82.000 352.137,82.039 352.098 C 82.118 352.019,82.960 348.073,83.445 345.511 C 83.616 344.607,83.796 343.730,83.846 343.560 C 84.017 342.973,80.288 341.309,78.079 340.987 C 77.521 340.906,76.796 340.703,76.466 340.535 C 74.897 339.738,65.873 339.357,60.951 339.880 M113.035 339.868 C 105.698 340.531,97.544 345.887,96.337 350.836 C 96.256 351.168,95.798 351.956,95.319 352.586 C 90.347 359.123,90.445 367.150,95.613 376.603 C 95.952 377.224,96.498 378.332,96.826 379.066 C 97.929 381.532,101.864 385.018,103.544 385.018 C 103.630 385.018,104.589 385.446,105.673 385.969 C 114.709 390.330,122.402 390.331,129.669 385.974 C 130.311 385.589,131.206 385.158,131.657 385.015 C 139.792 382.448,143.140 376.319,143.147 363.982 C 143.154 352.434,140.946 348.476,131.247 342.647 C 127.032 340.113,120.817 339.165,113.035 339.868 M171.575 339.871 C 163.681 340.476,159.603 342.706,154.354 349.290 C 150.555 354.055,150.450 354.441,150.450 363.776 C 150.450 373.309,150.511 373.526,154.658 378.723 C 157.271 381.998,159.093 383.735,161.054 384.822 C 161.592 385.121,162.566 385.740,163.219 386.198 C 168.976 390.243,181.991 390.279,188.466 386.268 C 191.864 384.163,193.984 382.716,195.261 381.629 L 196.678 380.422 195.774 379.614 C 193.316 377.418,190.116 374.591,189.503 374.075 L 188.817 373.497 187.278 374.896 C 181.787 379.888,174.366 381.158,169.215 377.987 C 164.916 375.341,163.575 374.100,163.572 372.764 C 163.572 372.515,163.338 371.968,163.053 371.549 C 162.058 370.083,161.870 368.897,161.898 364.276 C 161.925 359.792,162.029 359.163,163.037 357.421 C 163.300 356.966,163.578 356.250,163.654 355.830 C 163.897 354.489,165.166 353.333,168.774 351.167 C 174.021 348.015,181.402 348.755,187.620 353.055 L 188.785 353.861 192.733 350.925 L 196.680 347.989 195.364 346.787 C 193.687 345.257,191.194 343.625,189.225 342.770 C 188.379 342.402,187.178 341.838,186.557 341.517 C 183.434 339.899,178.408 339.347,171.575 339.871 M204.344 340.003 C 204.269 340.079,204.207 350.838,204.207 363.913 L 204.207 387.686 209.749 387.686 L 215.290 387.686 215.290 363.776 L 215.290 339.867 209.885 339.867 C 206.913 339.867,204.419 339.928,204.344 340.003 M225.962 363.776 L 225.962 387.686 244.536 387.686 L 263.109 387.686 263.109 383.787 L 263.109 379.887 249.458 379.887 L 235.807 379.887 235.861 374.089 L 235.916 368.291 247.563 368.238 L 259.210 368.185 259.210 363.571 L 259.210 358.957 247.563 358.904 L 235.916 358.851 235.916 353.925 L 235.916 348.999 248.692 348.947 L 261.467 348.894 261.467 344.380 L 261.467 339.867 243.715 339.867 L 225.962 339.867 225.962 363.776 M265.777 344.279 L 265.777 348.692 274.397 348.692 L 283.017 348.692 283.017 368.189 L 283.017 387.686 288.045 387.686 L 293.073 387.686 293.073 368.189 L 293.073 348.692 300.560 348.692 L 308.046 348.692 308.102 345.157 L 308.158 341.623 310.133 344.798 C 311.219 346.545,313.701 350.559,315.648 353.720 C 319.337 359.710,321.021 362.435,324.341 367.792 L 326.321 370.987 326.321 379.336 L 326.321 387.686 331.452 387.686 L 336.583 387.686 336.583 379.206 L 336.583 370.726 339.062 366.841 C 340.426 364.704,341.756 362.632,342.018 362.237 C 344.140 359.035,356.080 340.198,356.080 340.053 C 356.080 339.946,353.783 339.869,350.693 339.872 L 345.305 339.877 342.924 343.720 C 334.231 357.750,331.549 362.031,331.455 362.027 C 331.397 362.024,330.664 360.800,329.827 359.307 C 327.318 354.832,325.125 350.937,321.917 345.254 L 318.876 339.867 292.326 339.867 L 265.777 339.867 265.777 344.279 M122.730 349.729 C 126.040 350.443,130.107 353.904,130.116 356.014 C 130.117 356.260,130.436 356.999,130.825 357.656 C 133.242 361.743,133.197 367.519,130.718 371.429 C 130.388 371.948,130.118 372.572,130.118 372.814 C 130.118 374.864,126.332 378.224,123.086 379.054 C 116.284 380.793,111.482 379.421,106.669 374.364 C 103.287 370.810,102.941 369.788,103.071 363.731 C 103.187 358.314,104.209 356.290,108.774 352.438 C 112.213 349.536,117.275 348.554,122.730 349.729 " stroke="none" fill="#377cba" fill-rule="evenodd"></path><path id="path1" d="M5.541 246.588 L 5.541 487.019 200.000 487.019 L 394.459 487.019 394.459 246.588 L 394.459 6.157 200.000 6.157 L 5.541 6.157 5.541 246.588 M241.565 68.438 C 255.476 70.065,267.249 78.585,272.629 90.918 C 273.425 92.742,274.010 94.453,273.882 94.581 C 273.739 94.724,271.824 94.990,270.805 95.008 L 269.983 95.023 269.504 93.638 C 264.191 78.271,243.512 69.180,225.737 74.395 C 223.386 75.085,223.501 75.124,222.276 73.242 C 220.704 70.829,220.659 70.991,223.126 70.229 C 229.350 68.305,235.404 67.717,241.565 68.438 M242.175 77.361 C 252.633 79.331,260.177 84.659,265.005 93.484 C 265.299 94.021,266.603 97.345,266.543 97.402 C 266.431 97.506,262.690 98.923,262.526 98.923 C 262.426 98.923,262.180 98.484,261.980 97.948 C 260.301 93.450,256.121 88.491,251.514 85.531 C 247.756 83.117,244.742 82.013,239.307 81.060 C 236.088 80.496,229.803 80.953,225.998 82.028 C 225.397 82.198,224.875 82.305,224.838 82.266 C 224.674 82.094,224.340 78.503,224.476 78.372 C 224.794 78.066,227.748 77.467,231.811 76.883 C 233.515 76.639,239.906 76.933,242.175 77.361 M85.820 78.861 C 87.055 80.521,93.805 89.457,98.105 95.126 C 100.786 98.660,102.468 100.880,110.590 111.608 C 112.582 114.239,114.397 116.653,114.623 116.972 C 114.849 117.291,116.145 119.017,117.503 120.808 C 121.483 126.054,126.900 133.215,129.979 137.301 C 131.553 139.389,132.934 141.190,133.049 141.303 C 133.313 141.563,133.305 141.543,131.772 138.053 C 130.371 134.862,130.373 134.976,131.705 134.646 C 132.243 134.513,135.731 133.538,139.456 132.481 C 148.093 130.028,165.063 125.225,170.754 123.624 C 172.165 123.227,173.874 122.732,174.551 122.525 C 175.228 122.317,176.845 121.858,178.143 121.505 C 179.441 121.151,181.449 120.590,182.606 120.257 C 187.916 118.728,189.284 118.339,194.869 116.763 C 198.143 115.840,203.037 114.456,205.747 113.687 C 208.456 112.919,213.812 111.402,217.650 110.316 C 221.488 109.230,225.552 108.074,226.680 107.747 C 227.809 107.420,229.795 106.864,231.093 106.511 C 232.391 106.158,233.862 105.737,234.362 105.577 C 235.512 105.207,236.018 105.206,236.018 105.574 C 236.018 105.835,236.361 107.090,237.954 112.673 C 238.801 115.638,239.709 118.854,240.215 120.677 C 241.150 124.045,242.029 127.154,242.391 128.374 C 242.593 129.051,243.047 130.667,243.400 131.965 C 243.754 133.263,244.308 135.249,244.632 136.378 C 245.309 138.736,247.765 147.493,248.978 151.873 C 249.431 153.509,250.065 155.772,250.387 156.901 C 250.708 158.030,251.256 159.969,251.605 161.211 C 251.953 162.453,252.462 164.253,252.735 165.213 C 253.008 166.172,253.506 167.927,253.842 169.112 C 254.178 170.298,254.972 173.391,255.606 175.988 C 256.241 178.584,256.941 181.401,257.163 182.247 C 257.385 183.094,258.203 186.372,258.981 189.533 C 259.760 192.694,260.810 196.711,261.315 198.461 C 263.480 205.965,265.434 216.505,265.876 223.060 L 266.019 225.187 265.345 225.882 C 264.974 226.265,264.504 226.578,264.300 226.578 C 263.975 226.578,263.930 226.772,263.930 228.174 C 263.930 233.990,262.245 239.836,258.740 246.178 C 255.840 251.426,245.167 259.511,236.692 262.881 C 236.152 263.095,234.787 263.636,233.658 264.084 C 229.803 265.610,222.318 267.847,218.676 268.559 C 217.773 268.736,216.711 268.963,216.316 269.062 C 209.891 270.687,197.733 270.569,191.072 268.816 C 177.187 265.164,165.241 252.396,157.523 232.961 C 155.302 227.367,154.779 225.590,153.109 217.958 C 152.499 215.171,151.984 212.860,150.830 207.728 L 150.353 205.605 149.522 205.734 C 149.065 205.804,147.860 206.085,146.845 206.357 C 145.829 206.629,143.935 207.125,142.637 207.460 C 141.339 207.795,139.169 208.359,137.814 208.713 C 136.460 209.067,134.428 209.590,133.299 209.875 C 132.170 210.160,130.785 210.522,130.221 210.678 C 129.656 210.835,127.347 211.436,125.090 212.014 C 121.177 213.015,120.123 213.287,113.699 214.955 C 108.320 216.353,106.080 216.939,103.694 217.571 C 102.368 217.923,100.959 218.281,100.564 218.368 C 100.169 218.454,98.576 218.859,97.024 219.268 C 95.472 219.676,92.932 220.345,91.380 220.753 C 89.828 221.162,88.327 221.541,88.045 221.596 C 87.763 221.651,86.609 221.953,85.480 222.268 C 84.351 222.583,83.197 222.885,82.914 222.940 C 82.632 222.995,81.293 223.334,79.938 223.692 C 75.867 224.770,71.209 225.978,69.574 226.381 C 67.519 226.887,66.238 227.316,61.981 228.928 C 53.520 232.130,49.666 233.556,49.468 233.556 C 49.200 233.556,49.171 234.029,49.777 228.425 C 50.409 222.572,51.277 214.333,51.410 212.930 C 51.571 211.223,52.518 202.149,53.059 197.127 C 53.339 194.531,53.613 191.898,53.669 191.278 C 53.724 190.657,53.996 188.025,54.273 185.428 C 55.102 177.639,55.821 170.722,55.926 169.523 C 55.980 168.902,56.253 166.270,56.532 163.674 C 57.187 157.578,58.057 149.212,58.185 147.768 C 58.240 147.147,58.513 144.515,58.792 141.919 C 59.071 139.323,59.538 134.890,59.830 132.068 C 60.122 129.246,60.628 124.397,60.955 121.293 C 61.282 118.189,61.644 114.679,61.759 113.494 C 61.875 112.309,62.158 109.584,62.389 107.440 C 62.620 105.295,63.039 101.324,63.321 98.615 C 64.217 89.985,65.064 82.224,65.114 82.187 C 65.140 82.166,68.533 81.296,72.653 80.253 C 76.773 79.210,80.975 78.140,81.991 77.875 C 84.650 77.181,84.552 77.156,85.820 78.861 M241.241 86.295 C 248.559 88.226,254.206 93.187,256.896 100.051 C 258.009 102.892,258.165 102.641,255.101 102.942 L 253.764 103.074 253.302 101.961 C 249.313 92.336,238.457 87.804,227.153 91.044 C 226.780 91.151,226.716 90.925,226.470 88.618 L 226.345 87.446 227.036 87.158 C 227.706 86.878,231.596 85.909,232.837 85.713 C 234.563 85.440,239.226 85.763,241.241 86.295 M355.799 145.254 C 355.740 145.564,355.634 146.511,355.565 147.358 C 355.495 148.204,355.301 150.051,355.133 151.462 C 354.966 152.873,354.605 156.106,354.333 158.645 C 353.747 164.097,353.383 167.402,352.695 173.525 C 352.061 179.160,351.640 182.965,351.242 186.660 C 351.071 188.240,350.705 191.519,350.427 193.946 C 350.150 196.372,349.880 198.820,349.828 199.384 C 349.776 199.949,349.502 202.442,349.219 204.926 C 348.155 214.285,347.843 217.115,347.567 219.908 C 347.411 221.488,347.141 223.889,346.967 225.244 C 346.793 226.598,346.551 228.769,346.429 230.067 C 346.307 231.365,346.035 233.858,345.823 235.608 C 345.612 237.358,345.381 239.436,345.310 240.226 C 345.239 241.016,344.958 243.602,344.685 245.972 C 343.953 252.337,343.362 257.640,342.946 261.570 C 342.478 265.987,342.025 270.062,341.396 275.526 C 341.123 277.896,340.803 280.852,340.684 282.093 C 340.565 283.335,340.291 285.829,340.075 287.635 C 339.858 289.441,339.574 292.003,339.442 293.329 L 339.202 295.739 335.891 296.778 C 334.071 297.349,331.703 298.087,330.631 298.417 C 329.559 298.747,326.928 299.565,324.784 300.234 C 322.641 300.904,320.811 301.405,320.719 301.347 C 320.568 301.254,308.815 285.651,308.055 284.535 C 307.886 284.286,306.362 282.251,304.669 280.012 C 302.976 277.772,301.435 275.708,301.245 275.425 C 301.055 275.142,299.485 273.043,297.756 270.760 C 294.204 266.070,284.718 253.408,284.248 252.730 C 284.079 252.486,282.555 250.449,280.862 248.205 C 279.169 245.961,277.626 243.894,277.433 243.612 C 277.240 243.330,274.406 239.543,271.136 235.198 C 265.552 227.777,265.220 227.288,265.682 227.162 C 267.315 226.716,267.455 225.741,266.704 220.065 C 266.424 217.947,266.142 215.798,266.078 215.290 C 265.598 211.461,263.514 202.159,262.171 197.845 C 261.908 196.998,260.624 191.965,259.318 186.660 C 258.013 181.355,256.760 176.348,256.535 175.534 C 255.790 172.841,255.779 172.271,256.466 172.110 C 256.790 172.034,258.025 171.694,259.210 171.354 C 260.395 171.014,262.150 170.516,263.109 170.247 C 264.988 169.719,268.009 168.858,271.370 167.892 C 273.422 167.302,281.982 164.881,287.122 163.438 C 288.533 163.042,290.241 162.548,290.918 162.340 C 291.596 162.133,293.212 161.674,294.510 161.320 C 295.808 160.967,297.817 160.405,298.974 160.072 C 300.131 159.739,302.070 159.183,303.284 158.836 C 304.497 158.490,306.275 157.981,307.234 157.705 C 308.194 157.430,310.780 156.697,312.981 156.077 C 315.182 155.458,317.907 154.685,319.035 154.360 C 320.164 154.036,321.919 153.535,322.935 153.247 C 325.276 152.583,328.596 151.634,331.298 150.858 C 336.212 149.445,338.201 148.920,344.555 147.356 C 348.241 146.449,352.088 145.485,353.104 145.214 C 355.648 144.536,355.936 144.540,355.799 145.254 M75.423 340.055 C 76.213 340.310,77.276 340.610,77.783 340.720 C 79.478 341.090,80.746 341.522,82.350 342.278 C 84.230 343.164,84.194 343.025,83.440 346.493 C 83.165 347.759,82.788 349.579,82.603 350.538 C 82.196 352.642,82.245 352.585,81.310 352.049 C 77.317 349.762,73.381 348.947,65.880 348.856 L 62.699 348.817 61.193 349.721 C 58.124 351.563,57.730 353.204,59.718 355.868 C 60.172 356.477,60.544 357.040,60.544 357.118 C 60.544 357.197,60.890 357.360,61.313 357.481 C 61.737 357.601,63.394 358.112,64.996 358.616 C 66.757 359.169,68.542 359.589,69.511 359.676 C 71.484 359.854,74.473 360.781,76.655 361.891 C 77.558 362.350,78.715 362.872,79.227 363.051 C 80.451 363.478,84.606 366.761,85.419 367.942 C 86.420 369.397,87.057 371.657,87.080 373.833 C 87.101 375.836,87.131 375.740,84.750 381.202 L 83.864 383.236 82.124 384.486 C 81.166 385.174,79.956 386.123,79.435 386.595 C 78.589 387.362,78.268 387.502,76.442 387.900 C 75.317 388.145,73.612 388.530,72.653 388.755 C 68.629 389.697,59.967 389.411,56.713 388.228 C 54.647 387.477,51.891 386.416,49.548 385.469 C 48.410 385.009,47.210 384.573,46.880 384.501 C 45.691 384.238,45.696 384.245,46.155 383.529 C 46.390 383.163,47.527 381.224,48.682 379.220 C 51.256 374.755,50.672 374.840,56.363 378.105 C 59.619 379.974,68.364 380.627,73.180 379.362 L 74.426 379.034 74.873 377.233 C 75.555 374.490,75.493 373.428,74.602 372.588 C 74.207 372.215,73.884 371.811,73.884 371.688 C 73.884 371.566,73.538 371.309,73.114 371.118 C 72.691 370.927,72.190 370.643,72.001 370.488 C 71.812 370.332,70.703 370.072,69.538 369.911 C 66.935 369.549,66.748 369.492,66.189 368.889 C 65.818 368.489,65.410 368.368,63.825 368.188 C 62.771 368.069,60.690 367.651,59.201 367.259 C 57.712 366.867,56.311 366.547,56.088 366.547 C 55.612 366.547,53.723 365.368,51.401 363.621 C 49.641 362.297,48.338 360.079,47.154 356.388 C 45.423 350.992,51.644 342.250,58.707 340.152 C 61.589 339.296,72.868 339.231,75.423 340.055 M121.878 339.666 C 125.924 340.024,128.494 340.773,131.144 342.366 C 140.748 348.140,143.465 352.865,143.456 363.775 C 143.446 376.050,139.855 382.503,131.472 385.313 C 130.919 385.498,130.226 385.819,129.933 386.026 C 123.919 390.266,114.452 390.414,106.106 386.399 C 105.033 385.883,103.430 385.130,102.543 384.726 C 99.707 383.434,97.872 381.706,96.749 379.271 C 96.359 378.425,95.808 377.317,95.525 376.809 C 90.239 367.315,90.172 358.988,95.325 352.283 C 95.673 351.832,96.175 350.908,96.441 350.231 C 99.390 342.744,109.450 338.566,121.878 339.666 M182.857 340.072 C 184.123 340.343,185.519 340.837,186.859 341.488 C 187.991 342.038,189.148 342.556,189.430 342.640 C 190.757 343.031,194.539 345.638,196.065 347.213 L 196.851 348.023 192.822 351.056 L 188.793 354.089 188.187 353.641 C 181.882 348.979,174.248 348.096,168.735 351.390 C 165.244 353.476,163.777 354.857,163.775 356.060 C 163.775 356.353,163.500 357.007,163.164 357.513 C 161.613 359.852,161.552 368.650,163.070 371.171 C 163.459 371.816,163.777 372.540,163.777 372.780 C 163.780 374.295,169.195 378.448,171.933 379.036 C 177.789 380.292,182.998 378.771,187.413 374.518 C 188.097 373.859,188.705 373.320,188.764 373.320 C 189.086 373.320,196.614 380.117,196.614 380.408 C 196.614 381.454,188.519 386.784,184.946 388.091 C 178.881 390.308,168.045 389.554,163.548 386.602 C 162.822 386.126,161.538 385.322,160.693 384.817 C 159.071 383.845,156.429 381.366,155.001 379.477 C 154.532 378.856,153.545 377.563,152.807 376.603 C 150.471 373.566,150.379 373.140,150.280 364.859 C 150.152 354.090,150.188 353.977,155.942 347.070 C 159.843 342.387,164.125 340.450,172.499 339.580 C 174.597 339.362,180.951 339.664,182.857 340.072 M215.495 363.776 L 215.495 387.891 209.851 387.891 L 204.207 387.891 204.207 363.776 L 204.207 339.661 209.851 339.661 L 215.495 339.661 215.495 363.776 M261.625 344.433 L 261.680 349.102 248.849 349.102 L 236.018 349.102 236.018 353.925 L 236.018 358.748 247.717 358.748 L 259.415 358.748 259.415 363.571 L 259.415 368.394 247.717 368.394 L 236.018 368.394 236.018 374.141 L 236.018 379.887 249.666 379.887 L 263.315 379.887 263.315 383.889 L 263.315 387.891 244.536 387.891 L 225.757 387.891 225.757 363.775 L 225.757 339.659 243.663 339.712 L 261.570 339.764 261.625 344.433 M319.636 340.868 C 320.039 341.532,320.369 342.134,320.369 342.207 C 320.369 342.279,320.588 342.683,320.855 343.103 C 321.122 343.524,322.429 345.808,323.761 348.179 C 326.402 352.880,330.169 359.554,330.986 360.981 L 331.501 361.881 332.144 360.812 C 332.497 360.224,332.878 359.587,332.991 359.396 C 333.104 359.205,333.974 357.804,334.924 356.282 C 337.529 352.109,342.080 344.788,343.758 342.073 L 345.248 339.661 350.869 339.661 C 353.961 339.661,356.491 339.726,356.491 339.804 C 356.491 339.883,356.272 340.275,356.006 340.677 C 355.739 341.078,354.993 342.237,354.349 343.253 C 353.225 345.024,350.679 349.010,348.451 352.488 C 347.872 353.391,346.882 354.941,346.249 355.932 C 345.617 356.924,344.698 358.355,344.206 359.114 C 343.278 360.544,338.126 368.578,337.163 370.095 L 336.615 370.959 336.599 379.425 L 336.583 387.891 331.452 387.891 L 326.321 387.891 326.321 379.598 L 326.321 371.306 324.754 368.772 C 323.892 367.379,321.507 363.515,319.454 360.185 C 315.074 353.080,314.521 352.186,312.158 348.384 C 311.176 346.803,309.920 344.773,309.368 343.871 L 308.363 342.232 308.307 345.562 L 308.251 348.892 300.713 348.946 L 293.176 348.999 293.124 368.445 L 293.071 387.891 288.045 387.891 L 283.019 387.891 282.967 368.445 L 282.914 348.999 274.346 348.946 L 265.777 348.892 265.777 344.277 L 265.777 339.661 292.340 339.661 L 318.903 339.661 319.636 340.868 M113.497 349.925 C 110.338 350.778,105.473 355.106,103.901 358.464 L 103.335 359.672 103.335 364.499 L 103.335 369.327 103.991 370.658 C 105.106 372.923,109.533 377.271,112.007 378.532 C 114.442 379.773,121.634 379.657,124.861 378.325 C 126.576 377.617,129.621 374.574,129.806 373.382 C 129.872 372.953,130.076 372.324,130.259 371.986 C 133.184 366.569,133.208 361.281,130.327 357.106 C 130.132 356.824,129.919 356.249,129.854 355.829 C 129.517 353.662,126.374 350.907,123.232 350.024 C 121.210 349.456,115.450 349.397,113.497 349.925 M202.463 410.333 C 203.027 410.596,203.959 410.967,204.534 411.157 C 206.483 411.805,206.901 412.576,205.770 413.439 L 205.074 413.969 204.307 413.517 C 203.228 412.880,200.708 412.743,199.087 413.234 L 197.901 413.593 198.000 414.474 C 198.083 415.209,198.023 415.417,197.637 415.733 C 196.021 417.054,196.108 416.925,196.385 417.593 C 196.526 417.934,196.958 418.519,197.346 418.895 C 197.733 419.270,198.050 419.771,198.050 420.006 C 198.050 421.204,201.065 421.549,203.284 420.605 C 205.161 419.806,205.061 419.788,205.831 421.068 C 206.672 422.466,206.540 422.913,205.006 423.861 L 204.069 424.440 200.453 424.270 C 196.310 424.076,196.573 424.192,194.770 421.755 C 193.100 419.496,192.704 414.936,194.112 414.182 C 194.307 414.077,194.574 413.591,194.705 413.101 C 195.132 411.502,196.057 410.470,197.077 410.451 C 197.556 410.442,198.317 410.314,198.769 410.165 C 200.056 409.741,201.313 409.798,202.463 410.333 M79.425 417.034 L 79.425 423.807 77.373 423.807 L 75.321 423.807 75.321 417.034 L 75.321 410.262 77.373 410.262 L 79.425 410.262 79.425 417.034 M85.377 417.034 L 85.377 423.807 83.325 423.807 L 81.272 423.807 81.272 417.034 L 81.272 410.262 83.325 410.262 L 85.377 410.262 85.377 417.034 M91.329 417.046 L 91.329 423.830 90.354 423.767 L 89.379 423.704 89.325 417.241 C 89.262 409.789,89.189 410.262,90.399 410.262 L 91.329 410.262 91.329 417.046 M105.490 411.390 L 105.490 412.519 103.848 412.519 L 102.206 412.519 102.206 418.163 L 102.206 423.807 100.157 423.807 L 98.108 423.807 98.054 418.214 L 97.999 412.622 96.306 412.562 L 94.613 412.503 94.613 411.382 L 94.613 410.262 100.051 410.262 L 105.490 410.262 105.490 411.390 M116.162 410.591 C 117.122 410.773,118.107 410.957,118.351 411.002 C 118.596 411.046,118.992 411.398,119.230 411.784 C 119.469 412.170,119.979 412.672,120.364 412.899 C 121.336 413.473,121.657 414.567,121.308 416.124 C 121.108 417.015,121.106 417.486,121.297 418.282 C 121.431 418.841,121.484 419.524,121.416 419.799 C 121.217 420.589,119.080 422.986,118.574 422.986 C 118.334 422.986,117.927 423.185,117.668 423.428 C 117.140 423.924,116.924 423.939,111.596 423.857 L 108.363 423.807 108.363 417.034 L 108.363 410.262 111.390 410.261 C 113.320 410.260,115.050 410.380,116.162 410.591 M129.126 414.469 C 131.423 419.127,131.304 418.978,131.861 417.907 C 132.081 417.483,132.457 416.814,132.696 416.419 C 132.936 416.024,133.503 415.008,133.958 414.161 C 134.413 413.315,135.081 412.091,135.443 411.442 L 136.101 410.262 137.621 410.262 C 139.463 410.262,139.266 409.686,139.554 415.906 C 139.674 418.502,139.830 421.346,139.901 422.225 L 140.030 423.824 138.204 423.764 L 136.378 423.704 136.195 420.472 C 136.094 418.694,135.940 417.240,135.852 417.240 C 135.689 417.240,132.786 422.524,132.786 422.822 C 132.786 422.912,132.193 422.986,131.467 422.986 L 130.148 422.986 129.607 421.806 C 129.310 421.157,128.680 419.711,128.207 418.593 L 127.347 416.560 127.245 420.132 L 127.142 423.704 125.346 423.764 L 123.551 423.823 123.551 417.042 L 123.551 410.262 125.301 410.262 L 127.052 410.262 129.126 414.469 M151.881 413.289 L 151.890 416.316 152.548 415.583 C 152.910 415.180,154.115 413.818,155.226 412.556 L 157.245 410.262 159.279 410.262 C 161.765 410.262,161.790 410.007,158.972 413.442 L 156.631 416.296 157.177 416.950 C 157.477 417.309,158.598 418.618,159.668 419.857 L 161.615 422.111 162.159 420.855 C 162.459 420.165,163.485 417.799,164.440 415.598 C 165.395 413.397,166.294 411.296,166.438 410.929 L 166.699 410.262 168.377 410.262 L 170.055 410.262 173.483 416.804 C 175.368 420.402,176.911 423.450,176.911 423.576 C 176.911 423.728,176.356 423.807,175.301 423.807 L 173.692 423.807 172.826 422.781 L 171.961 421.755 168.840 421.755 L 165.718 421.755 164.905 422.781 L 164.092 423.807 161.583 423.807 L 159.074 423.807 156.251 421.652 L 153.429 419.497 152.651 420.257 C 151.901 420.990,151.873 421.068,151.873 422.412 L 151.873 423.807 150.026 423.807 L 148.179 423.807 148.179 417.034 L 148.179 410.262 150.026 410.262 L 151.873 410.262 151.881 413.289 M184.419 414.596 L 187.481 418.930 187.536 414.596 L 187.592 410.262 189.332 410.262 L 191.072 410.262 191.072 417.034 L 191.072 423.807 189.441 423.807 C 188.261 423.807,187.764 423.728,187.645 423.521 C 187.504 423.275,186.308 421.973,181.688 417.038 L 180.820 416.111 180.815 419.968 L 180.811 423.825 179.323 423.765 L 177.835 423.704 177.780 417.241 C 177.716 409.515,177.516 410.262,179.641 410.262 L 181.357 410.262 184.419 414.596 M210.775 413.238 L 210.775 416.213 214.469 416.213 L 218.163 416.213 218.163 413.238 L 218.163 410.262 220.215 410.262 L 222.268 410.262 222.268 417.034 L 222.268 423.807 220.215 423.807 L 218.163 423.807 218.163 421.447 L 218.163 419.087 214.469 419.087 L 210.775 419.087 210.775 421.447 L 210.775 423.807 209.749 423.807 L 208.722 423.807 208.722 417.034 L 208.722 410.262 209.749 410.262 L 210.775 410.262 210.775 413.238 M234.992 411.698 L 234.992 413.135 231.811 413.135 L 228.630 413.135 228.630 414.469 L 228.630 415.803 231.298 415.803 L 233.966 415.803 233.966 417.137 L 233.966 418.471 231.298 418.471 L 228.630 418.471 228.630 420.314 L 228.630 422.156 232.581 422.212 L 236.532 422.268 236.595 423.037 L 236.659 423.807 231.105 423.807 L 225.552 423.807 225.552 417.034 L 225.552 410.262 230.272 410.262 L 234.992 410.262 234.992 411.698 M249.359 411.698 L 249.359 413.135 245.459 413.135 L 241.560 413.135 241.560 414.464 L 241.560 415.793 244.997 415.849 L 248.435 415.906 248.496 417.188 L 248.557 418.471 245.059 418.471 L 241.560 418.471 241.560 420.313 L 241.560 422.156 245.203 422.212 L 248.846 422.268 248.909 423.037 L 248.973 423.807 243.419 423.807 L 237.866 423.807 237.866 417.034 L 237.866 410.262 243.612 410.262 L 249.359 410.262 249.359 411.698 M259.415 410.569 C 259.697 410.735,260.101 410.932,260.313 411.007 C 261.320 411.365,262.399 412.078,262.467 412.433 C 262.509 412.649,262.765 413.032,263.037 413.283 C 263.434 413.652,263.499 413.851,263.372 414.310 C 263.217 414.865,263.202 415.639,263.319 416.968 C 263.388 417.752,262.787 418.538,261.217 419.717 L 260.144 420.523 257.522 420.523 L 254.900 420.523 254.900 422.165 L 254.900 423.807 252.848 423.807 L 250.795 423.807 250.795 417.034 L 250.795 410.262 254.849 410.265 C 258.040 410.267,259.011 410.332,259.415 410.569 M269.881 415.136 C 269.863 417.817,269.856 420.130,269.866 420.277 C 269.890 420.670,271.029 421.071,272.578 421.231 C 274.370 421.416,275.369 420.359,274.493 419.201 C 274.251 418.881,274.192 417.970,274.192 414.532 L 274.192 410.262 275.834 410.262 L 277.476 410.262 277.467 414.828 C 277.450 423.716,277.221 424.115,272.140 424.115 C 266.730 424.115,265.777 422.726,265.777 414.842 L 265.777 410.262 267.845 410.262 L 269.912 410.262 269.881 415.136 M289.379 410.539 C 290.087 410.794,292.346 412.403,292.852 413.013 C 293.361 413.626,293.303 418.624,292.786 418.764 C 292.549 418.828,292.152 419.042,291.904 419.240 L 291.452 419.600 292.673 421.609 C 293.345 422.714,293.894 423.661,293.894 423.713 C 293.894 423.765,293.202 423.807,292.356 423.807 L 290.818 423.807 289.482 421.755 L 288.146 419.702 285.992 419.702 L 283.838 419.702 283.838 421.755 L 283.838 423.807 282.914 423.807 L 281.991 423.807 281.991 417.034 L 281.991 410.262 285.326 410.271 C 287.472 410.276,288.917 410.372,289.379 410.539 M304.243 411.750 C 304.616 412.568,305.386 414.207,305.954 415.393 C 308.662 421.049,309.903 423.670,309.903 423.735 C 309.903 423.775,308.936 423.807,307.755 423.807 L 305.607 423.807 305.471 422.781 L 305.334 421.755 301.979 421.755 L 298.623 421.755 297.857 422.781 L 297.090 423.807 295.698 423.807 C 294.932 423.807,294.305 423.746,294.305 423.672 C 294.305 423.598,294.686 422.697,295.152 421.671 C 295.619 420.645,296.121 419.528,296.268 419.189 C 296.415 418.851,297.245 417.004,298.113 415.085 C 298.980 413.166,299.818 411.296,299.976 410.929 L 300.262 410.262 301.913 410.262 L 303.564 410.262 304.243 411.750 M316.700 414.469 C 317.981 416.783,319.089 418.676,319.161 418.676 C 319.233 418.676,320.196 416.991,321.300 414.931 C 324.045 409.811,323.670 410.262,325.184 410.262 L 326.463 410.262 326.597 413.186 C 326.671 414.795,326.792 417.847,326.867 419.969 L 327.002 423.827 325.584 423.766 L 324.166 423.704 324.017 420.436 C 323.936 418.638,323.842 417.088,323.810 416.991 C 323.777 416.893,322.881 418.203,321.818 419.900 L 319.885 422.986 318.912 422.986 L 317.939 422.986 316.640 420.477 C 315.926 419.096,315.156 417.595,314.931 417.142 L 314.520 416.316 314.464 420.062 L 314.408 423.807 312.874 423.807 L 311.339 423.807 311.339 417.034 L 311.339 410.262 312.855 410.262 L 314.371 410.262 316.700 414.469 M254.900 415.290 L 254.900 418.061 256.388 418.055 C 257.840 418.050,257.897 418.030,258.748 417.227 C 260.782 415.307,259.357 412.519,256.341 412.519 L 254.900 412.519 254.900 415.290 M283.838 414.858 L 283.838 417.196 286.352 417.282 C 287.735 417.329,288.969 417.333,289.095 417.292 C 289.891 417.031,290.056 414.161,289.275 414.161 C 289.128 414.161,288.912 413.884,288.794 413.544 C 288.508 412.724,287.885 412.519,285.672 412.519 L 283.838 412.519 283.838 414.858 M110.416 417.034 L 110.416 421.139 113.135 421.138 C 117.397 421.137,118.190 420.493,118.190 417.034 C 118.190 413.633,117.303 412.942,112.930 412.934 L 110.416 412.930 110.416 417.034 M167.007 415.846 C 165.845 418.805,165.645 418.497,168.679 418.426 L 171.175 418.368 169.710 416.008 C 168.905 414.710,168.187 413.584,168.115 413.505 C 168.043 413.426,167.544 414.480,167.007 415.846 M301.172 414.007 C 301.096 414.261,300.675 415.277,300.235 416.265 C 299.188 418.618,299.097 418.471,301.591 418.471 C 302.776 418.471,303.746 418.435,303.746 418.391 C 303.746 418.348,303.461 417.678,303.114 416.903 C 302.766 416.129,302.289 415.056,302.052 414.520 C 301.575 413.437,301.377 413.322,301.172 414.007 " stroke="none" fill="#fbfbfb" fill-rule="evenodd"></path><path id="path2" d="M233.152 68.353 C 229.200 68.731,222.776 70.156,221.299 70.983 C 220.872 71.222,223.403 74.992,223.868 74.809 C 227.967 73.194,237.412 72.461,242.680 73.349 C 255.636 75.532,265.239 82.538,269.296 92.766 L 270.069 94.715 271.824 94.696 C 274.006 94.673,273.953 94.741,273.273 92.822 C 267.744 77.230,250.471 66.695,233.152 68.353 M230.785 77.092 C 229.757 77.244,226.156 77.976,225.298 78.207 L 224.493 78.424 224.628 80.002 C 224.836 82.435,224.717 82.305,226.326 81.855 C 237.550 78.715,249.864 82.041,257.220 90.200 C 259.220 92.419,262.288 97.413,262.288 98.450 C 262.288 98.836,262.545 98.792,264.572 98.058 C 266.671 97.299,266.602 97.486,265.615 95.228 C 261.630 86.120,254.196 80.242,243.509 77.749 C 240.907 77.141,233.154 76.741,230.785 77.092 M231.606 86.093 C 230.703 86.238,229.193 86.606,228.251 86.909 L 226.538 87.460 226.683 89.138 C 226.861 91.191,226.691 91.048,228.473 90.639 C 239.542 88.102,249.425 92.496,253.268 101.662 L 253.771 102.861 255.601 102.739 C 257.851 102.588,257.736 102.738,257.066 100.827 C 253.413 90.409,242.830 84.284,231.606 86.093 M199.384 410.176 C 198.933 410.319,198.085 410.442,197.501 410.451 C 196.237 410.470,195.529 411.150,194.873 412.975 C 194.659 413.569,194.294 414.209,194.061 414.397 C 193.559 414.804,193.325 418.396,193.716 419.702 C 193.967 420.539,195.822 423.047,196.641 423.655 C 197.578 424.351,203.345 424.575,204.571 423.962 C 206.343 423.077,206.568 422.422,205.602 420.961 L 204.944 419.967 203.927 420.478 C 201.768 421.562,197.494 421.325,197.946 420.146 C 198.004 419.994,197.671 419.440,197.206 418.914 C 195.884 417.421,195.789 417.085,196.518 416.488 C 198.052 415.232,198.096 415.178,197.997 414.721 C 197.942 414.469,197.834 414.113,197.756 413.928 C 197.360 412.991,202.390 412.533,204.177 413.344 L 205.070 413.749 205.665 413.325 C 206.586 412.669,206.338 411.886,205.081 411.485 C 204.657 411.350,203.710 410.985,202.976 410.674 C 201.309 409.967,200.431 409.845,199.384 410.176 M75.526 416.932 L 75.526 423.602 77.373 423.602 L 79.220 423.602 79.220 416.932 L 79.220 410.262 77.373 410.262 L 75.526 410.262 75.526 416.932 M81.478 416.924 L 81.478 423.602 83.430 423.602 L 85.383 423.602 85.329 416.983 L 85.274 410.364 83.376 410.305 L 81.478 410.246 81.478 416.924 M89.628 410.389 C 89.548 410.469,89.482 413.475,89.482 417.069 L 89.482 423.602 90.408 423.602 L 91.335 423.602 91.280 416.983 L 91.226 410.364 90.501 410.303 C 90.102 410.270,89.709 410.308,89.628 410.389 M94.753 410.395 C 94.676 410.472,94.613 410.936,94.613 411.425 L 94.613 412.314 96.357 412.314 L 98.102 412.314 98.102 417.958 L 98.102 423.602 100.154 423.602 L 102.206 423.602 102.206 417.958 L 102.206 412.314 103.859 412.314 L 105.512 412.314 105.450 411.339 L 105.387 410.364 100.140 410.310 C 97.254 410.280,94.830 410.318,94.753 410.395 M108.568 416.870 L 108.568 423.537 112.667 423.674 L 116.765 423.811 117.992 423.167 C 118.809 422.739,119.575 422.104,120.281 421.270 L 121.341 420.015 121.188 418.781 C 121.013 417.381,121.014 417.166,121.202 415.580 C 121.361 414.245,120.977 413.263,120.149 412.886 C 119.870 412.758,119.451 412.346,119.219 411.971 C 118.986 411.595,118.596 411.243,118.351 411.188 C 118.107 411.134,117.260 410.941,116.470 410.759 C 115.663 410.574,113.616 410.379,111.801 410.316 L 108.568 410.203 108.568 416.870 M123.695 410.391 C 123.616 410.470,123.551 413.475,123.551 417.069 L 123.551 423.602 125.295 423.602 L 127.040 423.602 127.040 419.764 C 127.040 417.653,127.117 416.014,127.213 416.121 C 127.308 416.228,128.024 417.815,128.803 419.648 L 130.221 422.980 131.359 422.983 L 132.498 422.986 134.101 419.959 C 134.983 418.294,135.777 416.854,135.866 416.758 C 135.955 416.662,136.085 417.586,136.156 418.810 C 136.227 420.035,136.336 421.614,136.399 422.319 L 136.513 423.602 138.245 423.602 C 139.933 423.602,139.975 423.590,139.879 423.140 C 139.826 422.886,139.633 420.000,139.451 416.727 C 139.051 409.515,139.261 410.229,137.561 410.304 L 136.172 410.364 133.813 414.623 C 132.515 416.965,131.370 418.854,131.269 418.820 C 131.168 418.787,130.152 416.870,129.011 414.562 L 126.937 410.364 125.388 410.305 C 124.537 410.273,123.775 410.311,123.695 410.391 M148.528 410.391 C 148.449 410.470,148.384 413.475,148.384 417.069 L 148.384 423.602 150.128 423.602 L 151.873 423.602 151.873 422.225 C 151.873 420.918,151.911 420.810,152.620 420.083 L 153.368 419.317 156.161 421.430 L 158.953 423.543 160.607 423.677 C 163.339 423.897,163.993 423.727,164.924 422.552 L 165.718 421.550 168.833 421.550 L 171.949 421.550 172.841 422.585 L 173.733 423.621 175.297 423.560 L 176.861 423.499 173.407 416.932 L 169.953 410.364 168.455 410.364 L 166.957 410.364 166.361 411.596 C 166.033 412.273,164.893 414.859,163.827 417.342 C 162.761 419.826,161.816 421.936,161.725 422.031 C 161.635 422.127,160.411 420.887,159.005 419.277 L 156.448 416.350 158.778 413.500 C 161.574 410.080,161.546 410.262,159.269 410.262 L 157.430 410.262 154.702 413.352 L 151.975 416.442 151.873 413.403 L 151.770 410.364 150.222 410.305 C 149.370 410.273,148.608 410.311,148.528 410.391 M178.082 410.391 C 178.003 410.470,177.937 413.475,177.937 417.069 L 177.937 423.602 179.271 423.602 L 180.605 423.602 180.605 419.805 C 180.605 417.717,180.681 416.008,180.773 416.008 C 180.865 416.008,182.505 417.715,184.416 419.801 L 187.891 423.594 189.379 423.598 L 190.867 423.602 190.867 416.932 L 190.867 410.262 189.328 410.262 L 187.789 410.262 187.789 414.818 C 187.789 418.107,187.726 419.312,187.565 419.150 C 187.442 419.027,185.979 417.000,184.314 414.645 L 181.287 410.364 179.757 410.305 C 178.915 410.273,178.162 410.311,178.082 410.391 M208.928 416.919 L 208.928 423.602 209.742 423.602 L 210.556 423.602 210.614 421.293 L 210.672 418.984 214.469 418.984 L 218.266 418.984 218.324 421.293 L 218.382 423.602 220.328 423.602 L 222.274 423.602 222.219 416.983 L 222.165 410.364 220.267 410.305 L 218.368 410.246 218.368 413.230 L 218.368 416.213 214.879 416.248 C 212.960 416.266,211.229 416.290,211.031 416.299 C 210.709 416.314,210.661 416.007,210.570 413.340 L 210.467 410.364 209.697 410.301 L 208.928 410.237 208.928 416.919 M225.757 416.932 L 225.757 423.602 231.195 423.602 L 236.634 423.602 236.634 422.986 L 236.634 422.370 232.530 422.370 L 228.425 422.370 228.425 420.421 L 228.425 418.471 231.195 418.471 L 233.966 418.471 233.966 417.246 L 233.966 416.020 231.247 415.963 L 228.527 415.906 228.527 414.469 L 228.527 413.032 231.657 412.976 L 234.787 412.919 234.787 411.590 L 234.787 410.262 230.272 410.262 L 225.757 410.262 225.757 416.932 M238.071 416.928 L 238.071 423.602 243.407 423.602 L 248.743 423.602 248.743 422.991 L 248.743 422.380 245.100 422.324 L 241.457 422.268 241.398 420.369 L 241.339 418.471 244.836 418.471 L 248.332 418.471 248.332 417.245 L 248.332 416.018 244.895 415.962 L 241.457 415.906 241.457 414.469 L 241.457 413.032 245.418 412.977 L 249.378 412.921 249.317 411.643 L 249.256 410.364 243.663 410.310 L 238.071 410.255 238.071 416.928 M251.001 416.908 L 251.001 423.602 252.950 423.602 L 254.900 423.602 254.900 421.960 L 254.900 420.318 257.560 420.318 L 260.219 420.318 261.305 419.501 C 262.942 418.270,263.379 417.519,263.123 416.379 C 262.986 415.765,262.986 415.214,263.125 414.712 C 263.334 413.957,263.115 413.135,262.706 413.135 C 262.605 413.135,262.493 412.927,262.457 412.673 C 262.409 412.339,262.045 412.041,261.137 411.593 C 260.447 411.253,259.720 410.840,259.521 410.675 C 259.238 410.440,258.269 410.357,255.080 410.294 L 251.001 410.214 251.001 416.908 M265.853 410.565 C 265.789 410.732,265.778 412.879,265.827 415.337 C 265.927 420.282,266.114 421.214,267.223 422.277 C 267.557 422.596,267.830 422.964,267.830 423.094 C 267.830 424.132,273.987 424.454,275.809 423.512 C 277.074 422.858,277.521 420.309,277.431 414.264 L 277.373 410.364 275.885 410.304 L 274.397 410.244 274.397 414.453 C 274.397 417.929,274.456 418.785,274.733 419.367 C 275.305 420.567,274.123 421.825,272.872 421.350 C 272.567 421.234,271.996 421.139,271.603 421.139 C 271.210 421.139,270.615 420.998,270.282 420.826 L 269.677 420.513 269.677 415.387 L 269.677 410.262 267.823 410.262 C 266.378 410.262,265.944 410.328,265.853 410.565 M282.145 410.373 C 282.060 410.462,281.991 413.475,281.991 417.069 L 281.991 423.602 282.914 423.602 L 283.838 423.602 283.838 421.652 L 283.838 419.702 286.072 419.702 L 288.305 419.702 289.553 421.652 L 290.800 423.602 292.252 423.602 C 293.572 423.602,293.686 423.569,293.507 423.243 C 293.399 423.045,292.843 422.109,292.271 421.163 L 291.233 419.442 292.102 418.978 L 292.971 418.513 293.028 415.936 L 293.085 413.359 291.694 412.198 C 290.929 411.560,289.997 410.905,289.623 410.744 C 288.864 410.417,282.407 410.096,282.145 410.373 M299.608 412.048 C 298.486 414.471,294.510 423.419,294.510 423.521 C 294.510 423.565,295.099 423.602,295.819 423.602 L 297.127 423.602 297.820 422.581 L 298.512 421.560 301.926 421.555 C 305.719 421.549,305.582 421.493,305.590 423.037 L 305.593 423.602 307.642 423.602 L 309.692 423.602 309.206 422.524 C 308.516 420.997,303.784 411.043,303.571 410.672 C 303.446 410.454,302.967 410.347,301.919 410.304 L 300.444 410.243 299.608 412.048 M311.544 416.922 L 311.544 423.602 312.878 423.602 L 314.212 423.602 314.212 419.764 C 314.212 417.181,314.280 415.994,314.420 416.133 C 314.534 416.247,315.399 417.813,316.344 419.612 L 318.061 422.884 318.885 422.946 L 319.709 423.008 321.720 419.815 C 323.934 416.301,324.055 416.243,324.062 418.676 C 324.064 419.523,324.125 420.977,324.198 421.909 L 324.330 423.602 325.620 423.602 L 326.910 423.602 326.817 421.806 C 326.765 420.818,326.635 417.905,326.528 415.331 C 326.304 409.953,326.391 410.262,325.103 410.262 C 323.897 410.262,324.161 409.927,321.494 414.836 C 320.280 417.070,319.205 418.869,319.103 418.836 C 319.002 418.802,317.877 416.882,316.602 414.569 L 314.285 410.364 312.915 410.304 L 311.544 410.243 311.544 416.922 M258.720 413.191 C 259.105 413.612,259.512 413.956,259.623 413.956 C 259.735 413.956,259.824 414.529,259.822 415.239 L 259.818 416.521 258.775 417.394 C 257.768 418.235,257.680 418.266,256.316 418.266 L 254.900 418.266 254.900 415.267 L 254.900 412.269 256.460 412.348 C 257.957 412.424,258.047 412.457,258.720 413.191 M287.840 412.492 C 288.264 412.582,288.551 412.825,288.763 413.275 C 288.933 413.635,289.233 413.972,289.430 414.026 C 289.725 414.105,289.790 414.359,289.790 415.440 C 289.790 417.205,289.325 417.707,287.943 417.438 C 287.435 417.339,286.303 417.253,285.428 417.249 L 283.838 417.240 283.838 414.777 L 283.838 412.314 285.531 412.338 C 286.462 412.352,287.501 412.421,287.840 412.492 M115.690 412.962 C 116.314 413.119,116.922 413.482,117.492 414.039 L 118.352 414.879 118.322 417.120 L 118.292 419.361 117.410 420.144 C 116.265 421.160,115.540 421.342,112.622 421.343 L 110.210 421.344 110.210 417.034 L 110.210 412.724 112.480 412.724 C 113.728 412.724,115.173 412.831,115.690 412.962 M169.800 415.906 L 171.347 418.368 169.913 418.429 C 169.124 418.462,167.893 418.462,167.177 418.429 L 165.875 418.368 166.915 415.747 C 167.487 414.306,168.022 413.198,168.103 413.285 C 168.185 413.372,168.948 414.551,169.800 415.906 M302.776 415.854 L 303.908 418.471 301.569 418.471 C 300.283 418.471,299.230 418.429,299.230 418.378 C 299.230 418.326,299.611 417.426,300.077 416.377 C 300.542 415.327,301.055 414.159,301.217 413.780 C 301.379 413.401,301.542 413.124,301.578 413.164 C 301.615 413.204,302.154 414.415,302.776 415.854 " stroke="none" fill="#919293" fill-rule="evenodd"></path><path id="path3" d="M394.459 246.588 L 394.459 487.019 199.846 487.070 L 5.233 487.122 199.949 487.173 L 394.664 487.224 394.664 246.691 C 394.664 114.397,394.618 6.157,394.561 6.157 C 394.505 6.157,394.459 114.351,394.459 246.588 M234.428 72.999 C 234.625 73.051,234.949 73.051,235.146 72.999 C 235.344 72.948,235.182 72.905,234.787 72.905 C 234.392 72.905,234.230 72.948,234.428 72.999 M234.333 76.909 C 235.043 76.950,236.152 76.949,236.796 76.909 C 237.441 76.868,236.860 76.835,235.505 76.836 C 234.151 76.836,233.623 76.869,234.333 76.909 M262.801 83.120 C 263.357 83.684,263.858 84.146,263.915 84.146 C 263.971 84.146,263.563 83.684,263.007 83.120 C 262.451 82.555,261.950 82.093,261.893 82.093 C 261.837 82.093,262.246 82.555,262.801 83.120 M255.516 88.520 C 255.516 88.555,255.816 88.855,256.183 89.187 L 256.850 89.790 256.247 89.123 C 255.685 88.501,255.516 88.361,255.516 88.520 M64.290 89.995 C 64.292 90.446,64.334 90.607,64.383 90.352 C 64.432 90.096,64.430 89.727,64.379 89.531 C 64.328 89.334,64.288 89.543,64.290 89.995 M64.080 91.945 C 64.080 92.340,64.123 92.501,64.174 92.304 C 64.226 92.106,64.226 91.783,64.174 91.585 C 64.123 91.388,64.080 91.550,64.080 91.945 M270.062 94.875 C 270.161 94.974,270.508 95.022,270.832 94.982 C 271.374 94.914,271.360 94.900,270.652 94.802 C 270.211 94.741,269.959 94.772,270.062 94.875 M63.054 101.796 C 63.054 102.191,63.097 102.352,63.148 102.155 C 63.200 101.957,63.200 101.634,63.148 101.437 C 63.097 101.239,63.054 101.401,63.054 101.796 M62.028 111.442 C 62.028 111.837,62.070 111.998,62.122 111.801 C 62.174 111.603,62.174 111.280,62.122 111.083 C 62.070 110.885,62.028 111.047,62.028 111.442 M61.823 113.494 C 61.823 113.889,61.865 114.051,61.917 113.853 C 61.968 113.656,61.968 113.332,61.917 113.135 C 61.865 112.937,61.823 113.099,61.823 113.494 M60.797 123.551 C 60.797 123.946,60.839 124.107,60.891 123.910 C 60.942 123.712,60.942 123.389,60.891 123.191 C 60.839 122.994,60.797 123.155,60.797 123.551 M59.771 133.197 C 59.771 133.592,59.813 133.753,59.864 133.556 C 59.916 133.358,59.916 133.035,59.864 132.837 C 59.813 132.640,59.771 132.801,59.771 133.197 M59.565 135.249 C 59.565 135.644,59.608 135.806,59.659 135.608 C 59.711 135.410,59.711 135.087,59.659 134.890 C 59.608 134.692,59.565 134.854,59.565 135.249 M131.247 134.838 C 130.988 134.950,130.950 135.015,131.144 135.015 C 131.313 135.015,131.637 134.935,131.862 134.838 C 132.121 134.727,132.159 134.662,131.965 134.662 C 131.796 134.662,131.473 134.741,131.247 134.838 M58.539 145.100 C 58.539 145.495,58.581 145.657,58.633 145.459 C 58.685 145.262,58.685 144.938,58.633 144.741 C 58.581 144.543,58.539 144.705,58.539 145.100 M58.334 147.152 C 58.334 147.547,58.376 147.709,58.428 147.512 C 58.479 147.314,58.479 146.991,58.428 146.793 C 58.376 146.596,58.334 146.757,58.334 147.152 M355.101 150.231 C 355.101 150.626,355.144 150.788,355.195 150.590 C 355.247 150.393,355.247 150.069,355.195 149.872 C 355.144 149.674,355.101 149.836,355.101 150.231 M57.513 154.951 C 57.513 155.346,57.555 155.508,57.607 155.310 C 57.658 155.113,57.658 154.790,57.607 154.592 C 57.555 154.395,57.513 154.556,57.513 154.951 M57.308 157.004 C 57.308 157.399,57.350 157.560,57.402 157.363 C 57.453 157.165,57.453 156.842,57.402 156.644 C 57.350 156.447,57.308 156.609,57.308 157.004 M353.870 161.313 C 353.870 161.709,353.912 161.870,353.964 161.673 C 354.016 161.475,354.016 161.152,353.964 160.954 C 353.912 160.757,353.870 160.918,353.870 161.313 M56.286 166.752 C 56.288 167.204,56.330 167.364,56.379 167.109 C 56.428 166.854,56.426 166.484,56.375 166.288 C 56.324 166.092,56.283 166.301,56.286 166.752 M352.844 170.549 C 352.844 170.944,352.886 171.106,352.938 170.908 C 352.989 170.711,352.989 170.387,352.938 170.190 C 352.886 169.992,352.844 170.154,352.844 170.549 M55.255 176.706 C 55.255 177.101,55.298 177.263,55.349 177.065 C 55.401 176.868,55.401 176.544,55.349 176.347 C 55.298 176.149,55.255 176.311,55.255 176.706 M55.050 178.758 C 55.050 179.153,55.092 179.315,55.144 179.117 C 55.196 178.920,55.196 178.597,55.144 178.399 C 55.092 178.202,55.050 178.363,55.050 178.758 M351.613 181.632 C 351.613 182.027,351.655 182.188,351.706 181.991 C 351.758 181.793,351.758 181.470,351.706 181.272 C 351.655 181.075,351.613 181.237,351.613 181.632 M54.024 188.404 C 54.024 188.799,54.066 188.961,54.118 188.763 C 54.169 188.566,54.169 188.243,54.118 188.045 C 54.066 187.848,54.024 188.009,54.024 188.404 M350.586 190.867 C 350.586 191.262,350.629 191.424,350.680 191.226 C 350.732 191.029,350.732 190.705,350.680 190.508 C 350.629 190.310,350.586 190.472,350.586 190.867 M52.998 198.256 C 52.998 198.651,53.040 198.812,53.092 198.615 C 53.143 198.417,53.143 198.094,53.092 197.896 C 53.040 197.699,52.998 197.860,52.998 198.256 M52.793 200.308 C 52.793 200.703,52.835 200.865,52.886 200.667 C 52.938 200.469,52.938 200.146,52.886 199.949 C 52.835 199.751,52.793 199.913,52.793 200.308 M349.355 202.155 C 349.355 202.550,349.397 202.712,349.449 202.514 C 349.500 202.317,349.500 201.993,349.449 201.796 C 349.397 201.598,349.355 201.760,349.355 202.155 M51.766 210.159 C 51.766 210.554,51.809 210.716,51.860 210.518 C 51.912 210.321,51.912 209.997,51.860 209.800 C 51.809 209.602,51.766 209.764,51.766 210.159 M51.561 212.211 C 51.561 212.606,51.603 212.768,51.655 212.571 C 51.707 212.373,51.707 212.050,51.655 211.852 C 51.603 211.655,51.561 211.816,51.561 212.211 M348.124 213.238 C 348.124 213.633,348.166 213.794,348.217 213.597 C 348.269 213.399,348.269 213.076,348.217 212.878 C 348.166 212.681,348.124 212.842,348.124 213.238 M265.414 220.215 C 265.414 220.611,265.457 220.772,265.508 220.575 C 265.560 220.377,265.560 220.054,265.508 219.856 C 265.457 219.659,265.414 219.820,265.414 220.215 M50.539 221.960 C 50.541 222.411,50.583 222.572,50.633 222.317 C 50.682 222.061,50.680 221.692,50.628 221.496 C 50.577 221.300,50.537 221.508,50.539 221.960 M347.097 222.473 C 347.097 222.868,347.140 223.030,347.191 222.832 C 347.243 222.635,347.243 222.311,347.191 222.114 C 347.140 221.916,347.097 222.078,347.097 222.473 M263.797 228.220 C 263.797 229.179,263.832 229.572,263.875 229.092 C 263.918 228.612,263.918 227.827,263.875 227.347 C 263.832 226.868,263.797 227.260,263.797 228.220 M346.071 231.709 C 346.071 232.104,346.113 232.265,346.165 232.068 C 346.217 231.870,346.217 231.547,346.165 231.349 C 346.113 231.152,346.071 231.313,346.071 231.709 M49.509 231.914 C 49.509 232.309,49.551 232.470,49.603 232.273 C 49.654 232.075,49.654 231.752,49.603 231.555 C 49.551 231.357,49.509 231.519,49.509 231.914 M344.840 242.791 C 344.840 243.186,344.882 243.348,344.934 243.150 C 344.985 242.953,344.985 242.630,344.934 242.432 C 344.882 242.234,344.840 242.396,344.840 242.791 M255.509 250.128 L 254.387 251.308 255.567 250.187 C 256.216 249.570,256.747 249.039,256.747 249.006 C 256.747 248.854,256.551 249.032,255.509 250.128 M252.732 252.694 L 252.129 253.361 252.796 252.758 C 253.418 252.196,253.558 252.027,253.399 252.027 C 253.364 252.027,253.064 252.327,252.732 252.694 M343.608 254.079 C 343.608 254.474,343.651 254.636,343.702 254.438 C 343.754 254.241,343.754 253.917,343.702 253.720 C 343.651 253.522,343.608 253.684,343.608 254.079 M173.422 258.286 C 174.377 259.246,175.204 260.031,175.260 260.031 C 175.317 260.031,174.582 259.246,173.628 258.286 C 172.673 257.327,171.846 256.542,171.789 256.542 C 171.733 256.542,172.468 257.327,173.422 258.286 M342.582 263.315 C 342.582 263.710,342.624 263.871,342.676 263.674 C 342.728 263.476,342.728 263.153,342.676 262.955 C 342.624 262.758,342.582 262.919,342.582 263.315 M197.999 270.027 C 198.253 270.076,198.669 270.076,198.923 270.027 C 199.177 269.978,198.969 269.938,198.461 269.938 C 197.953 269.938,197.745 269.978,197.999 270.027 M208.055 270.027 C 208.309 270.076,208.725 270.076,208.979 270.027 C 209.233 269.978,209.025 269.938,208.517 269.938 C 208.009 269.938,207.801 269.978,208.055 270.027 M201.703 270.240 C 202.640 270.278,204.117 270.278,204.987 270.240 C 205.856 270.201,205.090 270.170,203.284 270.170 C 201.478 270.171,200.766 270.202,201.703 270.240 M341.556 272.550 C 341.556 272.945,341.598 273.107,341.650 272.909 C 341.702 272.712,341.702 272.388,341.650 272.191 C 341.598 271.993,341.556 272.155,341.556 272.550 M340.325 283.633 C 340.325 284.028,340.367 284.189,340.419 283.992 C 340.470 283.794,340.470 283.471,340.419 283.273 C 340.367 283.076,340.325 283.238,340.325 283.633 M339.299 292.868 C 339.299 293.263,339.341 293.425,339.392 293.227 C 339.444 293.030,339.444 292.707,339.392 292.509 C 339.341 292.311,339.299 292.473,339.299 292.868 M339.093 294.715 C 339.093 295.110,339.136 295.272,339.187 295.074 C 339.239 294.877,339.239 294.554,339.187 294.356 C 339.136 294.159,339.093 294.320,339.093 294.715 M68.805 339.608 C 69.454 339.649,70.516 339.649,71.165 339.608 C 71.814 339.567,71.283 339.534,69.985 339.534 C 68.687 339.534,68.155 339.567,68.805 339.608 M61.108 339.806 C 61.362 339.855,61.778 339.855,62.032 339.806 C 62.286 339.757,62.078 339.717,61.570 339.717 C 61.062 339.717,60.854 339.757,61.108 339.806 M113.548 339.809 C 113.860 339.856,114.322 339.855,114.574 339.806 C 114.827 339.757,114.572 339.719,114.007 339.720 C 113.443 339.722,113.236 339.761,113.548 339.809 M121.040 339.810 C 121.409 339.856,121.963 339.855,122.272 339.808 C 122.580 339.761,122.278 339.724,121.601 339.725 C 120.924 339.726,120.671 339.764,121.040 339.810 M171.832 339.808 C 172.142 339.855,172.650 339.855,172.960 339.808 C 173.271 339.761,173.017 339.723,172.396 339.723 C 171.775 339.723,171.521 339.761,171.832 339.808 M179.223 339.809 C 179.535 339.856,179.997 339.855,180.249 339.806 C 180.502 339.757,180.246 339.719,179.682 339.720 C 179.117 339.722,178.911 339.761,179.223 339.809 M215.340 363.722 L 215.290 387.679 209.800 387.737 L 204.310 387.796 209.806 387.843 C 214.050 387.880,215.325 387.833,215.400 387.635 C 215.454 387.494,215.474 376.665,215.444 363.571 L 215.391 339.764 215.340 363.722 M225.858 363.776 L 225.859 387.789 244.536 387.789 L 263.212 387.789 263.219 383.889 L 263.225 379.990 263.163 383.838 L 263.100 387.686 244.532 387.686 L 225.964 387.686 225.910 363.725 L 225.857 339.764 225.858 363.776 M261.514 344.329 L 261.467 348.894 248.692 348.947 L 235.916 348.999 235.916 353.925 L 235.916 358.851 247.563 358.904 L 259.210 358.957 259.210 363.571 L 259.210 368.185 247.563 368.238 L 235.916 368.291 235.911 374.089 L 235.906 379.887 235.965 374.142 L 236.025 368.397 247.669 368.344 L 259.312 368.291 259.312 363.571 L 259.312 358.851 247.665 358.798 L 236.018 358.745 236.018 353.923 L 236.018 349.102 248.749 349.102 C 258.876 349.102,261.501 349.049,261.581 348.840 C 261.636 348.697,261.654 346.596,261.621 344.171 L 261.561 339.764 261.514 344.329 M308.055 345.188 L 308.055 348.687 300.513 348.744 L 292.971 348.802 300.564 348.798 L 308.158 348.794 308.261 345.337 C 308.317 343.435,308.294 341.836,308.209 341.784 C 308.125 341.732,308.055 343.264,308.055 345.188 M189.841 343.048 C 190.123 343.209,190.446 343.341,190.559 343.341 C 190.672 343.341,190.534 343.209,190.251 343.048 C 189.969 342.886,189.646 342.754,189.533 342.754 C 189.420 342.754,189.559 342.886,189.841 343.048 M51.200 345.254 L 49.769 346.742 51.257 345.311 C 52.639 343.982,52.839 343.766,52.688 343.766 C 52.657 343.766,51.987 344.436,51.200 345.254 M157.408 345.562 L 156.080 346.947 157.465 345.619 C 158.752 344.385,158.945 344.177,158.793 344.177 C 158.762 344.177,158.139 344.800,157.408 345.562 M99.836 345.664 L 99.025 346.537 99.897 345.725 C 100.709 344.971,100.864 344.792,100.709 344.792 C 100.675 344.792,100.283 345.185,99.836 345.664 M63.571 348.631 C 63.825 348.680,64.241 348.680,64.495 348.631 C 64.749 348.582,64.541 348.542,64.033 348.542 C 63.525 348.542,63.317 348.582,63.571 348.631 M66.855 348.844 C 67.560 348.884,68.715 348.884,69.420 348.844 C 70.126 348.804,69.548 348.771,68.138 348.771 C 66.727 348.771,66.149 348.804,66.855 348.844 M270.036 348.845 C 272.435 348.878,276.360 348.878,278.758 348.845 C 281.157 348.813,279.194 348.786,274.397 348.786 C 269.600 348.786,267.637 348.813,270.036 348.845 M127.963 352.796 C 128.519 353.361,129.020 353.822,129.076 353.822 C 129.133 353.822,128.724 353.361,128.168 352.796 C 127.612 352.232,127.111 351.770,127.055 351.770 C 126.998 351.770,127.407 352.232,127.963 352.796 M58.338 353.104 C 58.340 353.556,58.382 353.716,58.431 353.461 C 58.481 353.206,58.479 352.836,58.427 352.640 C 58.376 352.444,58.336 352.653,58.338 353.104 M107.228 353.874 L 106.003 355.156 107.286 353.932 C 107.991 353.258,108.568 352.681,108.568 352.649 C 108.568 352.497,108.366 352.682,107.228 353.874 M164.690 354.079 L 163.879 354.951 164.751 354.140 C 165.562 353.386,165.718 353.207,165.562 353.207 C 165.529 353.207,165.136 353.599,164.690 354.079 M46.841 354.028 C 46.841 354.423,46.883 354.584,46.935 354.387 C 46.986 354.189,46.986 353.866,46.935 353.669 C 46.883 353.471,46.841 353.633,46.841 354.028 M93.689 354.849 C 93.514 355.187,93.417 355.464,93.473 355.464 C 93.530 355.464,93.719 355.187,93.894 354.849 C 94.069 354.510,94.167 354.233,94.110 354.233 C 94.054 354.233,93.864 354.510,93.689 354.849 M163.547 356.240 C 163.479 356.648,163.509 356.840,163.623 356.726 C 163.726 356.622,163.777 356.319,163.735 356.052 C 163.670 355.642,163.641 355.670,163.547 356.240 M103.079 361.313 C 103.081 361.765,103.123 361.926,103.172 361.670 C 103.221 361.415,103.220 361.046,103.168 360.849 C 103.117 360.653,103.077 360.862,103.079 361.313 M143.333 363.879 C 143.333 365.403,143.366 366.026,143.405 365.264 C 143.445 364.502,143.445 363.256,143.405 362.494 C 143.366 361.732,143.333 362.355,143.333 363.879 M91.609 363.776 C 91.610 364.905,91.644 365.341,91.686 364.744 C 91.727 364.148,91.727 363.224,91.685 362.692 C 91.643 362.160,91.609 362.648,91.609 363.776 M161.772 365.521 C 161.772 365.916,161.814 366.077,161.865 365.880 C 161.917 365.682,161.917 365.359,161.865 365.162 C 161.814 364.964,161.772 365.126,161.772 365.521 M103.083 367.368 C 103.083 367.876,103.123 368.084,103.172 367.830 C 103.221 367.576,103.221 367.160,103.172 366.906 C 103.123 366.652,103.083 366.860,103.083 367.368 M150.279 367.778 C 150.279 368.173,150.321 368.335,150.372 368.138 C 150.424 367.940,150.424 367.617,150.372 367.419 C 150.321 367.222,150.279 367.383,150.279 367.778 M63.571 368.128 C 63.825 368.177,64.241 368.177,64.495 368.128 C 64.749 368.080,64.541 368.039,64.033 368.039 C 63.525 368.039,63.317 368.080,63.571 368.128 M86.866 372.807 C 86.868 373.258,86.910 373.419,86.959 373.163 C 87.008 372.908,87.006 372.539,86.955 372.342 C 86.903 372.146,86.863 372.355,86.866 372.807 M187.678 374.397 L 186.660 375.475 187.731 374.462 L 188.802 373.450 189.270 373.847 L 189.738 374.243 189.347 373.781 C 188.828 373.168,188.847 373.161,187.678 374.397 M190.662 375.026 C 190.662 375.061,190.962 375.361,191.329 375.693 L 191.996 376.296 191.393 375.629 C 190.831 375.007,190.662 374.867,190.662 375.026 M58.953 379.413 C 59.151 379.465,59.474 379.465,59.672 379.413 C 59.869 379.361,59.708 379.319,59.312 379.319 C 58.917 379.319,58.756 379.361,58.953 379.413 M120.729 379.413 C 120.926 379.465,121.249 379.465,121.447 379.413 C 121.644 379.361,121.483 379.319,121.088 379.319 C 120.693 379.319,120.531 379.361,120.729 379.413 M116.835 379.628 C 117.375 379.670,118.206 379.670,118.682 379.627 C 119.159 379.584,118.717 379.549,117.701 379.550 C 116.685 379.550,116.296 379.585,116.835 379.628 M138.424 380.759 L 137.199 382.042 138.481 380.817 C 139.187 380.143,139.764 379.566,139.764 379.534 C 139.764 379.383,139.561 379.568,138.424 380.759 M175.327 379.628 C 175.866 379.670,176.698 379.670,177.174 379.627 C 177.650 379.584,177.209 379.549,176.193 379.550 C 175.177 379.550,174.787 379.585,175.327 379.628 M285.428 387.839 C 286.811 387.875,289.074 387.875,290.457 387.839 C 291.839 387.804,290.708 387.775,287.943 387.775 C 285.177 387.775,284.046 387.804,285.428 387.839 M328.847 387.839 C 330.293 387.875,332.602 387.875,333.978 387.839 C 335.354 387.804,334.171 387.775,331.349 387.775 C 328.527 387.775,327.401 387.804,328.847 387.839 M63.368 389.268 C 63.624 389.317,63.993 389.315,64.189 389.264 C 64.385 389.212,64.177 389.172,63.725 389.174 C 63.273 389.177,63.113 389.219,63.368 389.268 M173.784 389.268 C 174.039 389.317,174.409 389.315,174.605 389.264 C 174.801 389.212,174.592 389.172,174.141 389.174 C 173.689 389.177,173.529 389.219,173.784 389.268 M210.570 413.306 C 210.661 415.989,210.711 416.315,211.035 416.344 C 211.290 416.367,211.305 416.348,211.087 416.280 C 210.827 416.200,210.775 415.704,210.775 413.337 C 210.775 411.772,210.705 410.448,210.621 410.395 C 210.536 410.343,210.513 411.652,210.570 413.306 M237.964 416.932 L 237.968 423.704 243.304 423.710 L 248.640 423.715 243.358 423.655 L 238.076 423.595 238.018 416.877 L 237.960 410.159 237.964 416.932 M287.278 410.407 C 287.533 410.456,287.903 410.454,288.099 410.403 C 288.295 410.351,288.086 410.311,287.635 410.313 C 287.183 410.316,287.023 410.358,287.278 410.407 M75.419 417.034 L 75.423 423.704 77.373 423.704 L 79.323 423.704 79.327 417.137 L 79.331 410.570 79.273 417.086 L 79.214 423.602 77.373 423.602 L 75.532 423.602 75.473 416.983 L 75.414 410.364 75.419 417.034 M81.371 417.034 L 81.375 423.704 83.377 423.716 L 85.378 423.728 83.431 423.658 L 81.483 423.587 81.425 416.976 L 81.366 410.364 81.371 417.034 M108.461 417.034 L 108.466 423.704 111.134 423.713 L 113.802 423.722 111.188 423.656 L 108.574 423.590 108.516 416.977 L 108.457 410.364 108.461 417.034 M187.671 414.879 C 187.671 417.363,187.701 418.350,187.737 417.074 C 187.773 415.798,187.773 413.766,187.736 412.559 C 187.700 411.352,187.671 412.396,187.671 414.879 M190.915 416.974 L 190.867 423.584 189.379 423.655 L 187.891 423.726 189.386 423.766 C 191.253 423.817,191.089 424.512,191.021 416.827 L 190.964 410.364 190.915 416.974 M208.821 417.034 L 208.825 423.704 209.749 423.704 L 210.672 423.704 210.730 421.396 L 210.788 419.087 214.469 419.087 L 218.150 419.087 218.208 421.396 L 218.266 423.704 220.267 423.716 L 222.269 423.728 220.325 423.658 L 218.382 423.587 218.324 421.286 L 218.266 418.984 214.469 418.984 L 210.672 418.984 210.614 421.293 L 210.556 423.602 209.745 423.602 L 208.933 423.602 208.875 416.983 L 208.816 410.364 208.821 417.034 M218.245 413.340 C 218.245 414.977,218.277 415.646,218.316 414.828 C 218.355 414.010,218.355 412.671,218.316 411.852 C 218.277 411.034,218.245 411.703,218.245 413.340 M225.650 417.034 L 225.654 423.704 230.990 423.710 L 236.326 423.715 231.044 423.655 L 225.762 423.595 225.704 416.980 L 225.645 410.364 225.650 417.034 M234.825 411.642 L 234.787 412.919 231.657 412.976 L 228.527 413.032 228.527 414.469 L 228.527 415.906 231.195 415.915 L 233.864 415.923 231.247 415.857 L 228.630 415.791 228.630 414.463 L 228.630 413.135 231.715 413.135 C 235.200 413.135,235.059 413.208,234.939 411.469 L 234.863 410.364 234.825 411.642 M250.893 417.034 L 250.898 423.704 252.899 423.716 L 254.901 423.728 252.954 423.658 L 251.006 423.587 250.948 416.976 L 250.889 410.364 250.893 417.034 M269.763 414.572 C 269.763 416.886,269.793 417.832,269.830 416.675 C 269.866 415.518,269.866 413.625,269.830 412.468 C 269.793 411.311,269.763 412.258,269.763 414.572 M274.278 414.469 C 274.278 416.727,274.308 417.678,274.345 416.584 C 274.382 415.489,274.382 413.642,274.345 412.479 C 274.308 411.316,274.278 412.211,274.278 414.469 M326.369 411.698 C 326.369 412.093,326.411 412.255,326.463 412.057 C 326.514 411.860,326.514 411.537,326.463 411.339 C 326.411 411.142,326.369 411.303,326.369 411.698 M139.196 412.724 C 139.196 413.120,139.238 413.281,139.290 413.084 C 139.341 412.886,139.341 412.563,139.290 412.365 C 139.238 412.168,139.196 412.329,139.196 412.724 M95.491 412.465 C 96.031 412.508,96.862 412.507,97.338 412.464 C 97.814 412.421,97.373 412.386,96.357 412.387 C 95.341 412.387,94.951 412.423,95.491 412.465 M102.976 412.464 C 103.456 412.507,104.241 412.507,104.720 412.464 C 105.200 412.421,104.808 412.386,103.848 412.386 C 102.889 412.386,102.496 412.421,102.976 412.464 M255.460 412.462 C 255.824 412.507,256.471 412.508,256.896 412.464 C 257.322 412.419,257.024 412.382,256.234 412.381 C 255.444 412.380,255.095 412.417,255.460 412.462 M284.716 412.465 C 285.256 412.508,286.087 412.507,286.563 412.464 C 287.040 412.421,286.598 412.386,285.582 412.387 C 284.566 412.387,284.177 412.423,284.716 412.465 M241.440 413.209 C 241.381 413.363,241.360 414.033,241.395 414.697 L 241.457 415.906 244.895 415.913 L 248.333 415.921 244.946 415.857 L 241.560 415.793 241.560 414.469 L 241.560 413.144 245.408 413.083 L 249.256 413.023 245.401 412.976 C 242.306 412.939,241.526 412.985,241.440 413.209 M259.668 415.393 C 259.668 415.788,259.710 415.949,259.762 415.752 C 259.813 415.554,259.813 415.231,259.762 415.033 C 259.710 414.836,259.668 414.997,259.668 415.393 M326.582 416.419 C 326.582 416.927,326.622 417.134,326.671 416.880 C 326.720 416.626,326.720 416.211,326.671 415.957 C 326.622 415.703,326.582 415.911,326.582 416.419 M180.652 419.744 L 180.605 423.583 179.220 423.655 L 177.835 423.727 179.227 423.767 C 180.945 423.817,180.834 424.118,180.759 419.593 L 180.698 415.906 180.652 419.744 M314.259 419.744 L 314.212 423.583 312.827 423.655 L 311.442 423.727 312.834 423.767 C 314.552 423.817,314.441 424.118,314.366 419.593 L 314.305 415.906 314.259 419.744 M193.394 417.342 C 193.395 418.019,193.433 418.272,193.479 417.903 C 193.524 417.534,193.523 416.980,193.477 416.672 C 193.430 416.363,193.392 416.665,193.394 417.342 M228.500 420.421 C 228.500 421.550,228.535 421.985,228.576 421.389 C 228.618 420.792,228.618 419.869,228.575 419.336 C 228.533 418.804,228.499 419.292,228.500 420.421 M241.429 420.318 C 241.429 421.390,241.463 421.829,241.505 421.293 C 241.548 420.757,241.548 419.879,241.505 419.343 C 241.463 418.807,241.429 419.246,241.429 420.318 M326.788 421.755 C 326.788 422.263,326.828 422.470,326.876 422.217 C 326.925 421.963,326.925 421.547,326.876 421.293 C 326.828 421.039,326.788 421.247,326.788 421.755 M111.502 421.291 C 112.268 421.331,113.469 421.331,114.170 421.291 C 114.870 421.251,114.243 421.218,112.776 421.219 C 111.308 421.219,110.735 421.252,111.502 421.291 M324.111 421.960 C 324.111 422.355,324.153 422.517,324.205 422.319 C 324.257 422.122,324.257 421.798,324.205 421.601 C 324.153 421.403,324.111 421.565,324.111 421.960 M173.605 423.662 C 173.695 423.752,174.499 423.797,175.391 423.763 L 177.014 423.701 175.227 423.600 C 174.245 423.545,173.515 423.573,173.605 423.662 M290.794 423.663 C 290.885 423.753,291.596 423.799,292.375 423.764 L 293.792 423.700 292.210 423.600 C 291.341 423.544,290.703 423.573,290.794 423.663 M89.946 423.749 C 90.258 423.796,90.720 423.795,90.973 423.746 C 91.225 423.698,90.970 423.659,90.405 423.661 C 89.841 423.662,89.634 423.702,89.946 423.749 M99.076 423.753 C 99.669 423.795,100.639 423.795,101.231 423.753 C 101.824 423.712,101.339 423.678,100.154 423.678 C 98.969 423.678,98.484 423.712,99.076 423.753 M124.429 423.753 C 124.969 423.795,125.800 423.795,126.276 423.752 C 126.752 423.709,126.311 423.674,125.295 423.675 C 124.279 423.675,123.889 423.711,124.429 423.753 M137.359 423.753 C 137.898 423.795,138.729 423.795,139.206 423.752 C 139.682 423.709,139.241 423.674,138.225 423.675 C 137.209 423.675,136.819 423.711,137.359 423.753 M149.262 423.753 C 149.802 423.795,150.633 423.795,151.109 423.752 C 151.586 423.709,151.144 423.674,150.128 423.675 C 149.112 423.675,148.723 423.711,149.262 423.753 M159.518 423.749 C 159.828 423.796,160.336 423.796,160.646 423.749 C 160.957 423.702,160.703 423.663,160.082 423.663 C 159.461 423.663,159.207 423.702,159.518 423.749 M282.455 423.749 C 282.767 423.796,283.229 423.795,283.482 423.746 C 283.734 423.698,283.479 423.659,282.914 423.661 C 282.350 423.662,282.143 423.702,282.455 423.749 M294.865 423.750 C 295.229 423.795,295.875 423.796,296.301 423.752 C 296.727 423.707,296.429 423.670,295.639 423.669 C 294.849 423.668,294.500 423.705,294.865 423.750 M306.780 423.753 C 307.376 423.795,308.300 423.795,308.832 423.752 C 309.364 423.710,308.876 423.676,307.748 423.677 C 306.619 423.677,306.183 423.712,306.780 423.753 M324.829 423.750 C 325.193 423.795,325.839 423.796,326.265 423.752 C 326.691 423.707,326.393 423.670,325.603 423.669 C 324.813 423.668,324.464 423.705,324.829 423.750 " stroke="none" fill="#9ebfe0" fill-rule="evenodd"></path><path id="path4" d="M5.438 246.588 C 5.438 378.881,5.462 432.971,5.490 366.787 C 5.518 300.602,5.518 192.362,5.490 126.253 C 5.462 60.144,5.438 114.295,5.438 246.588 M235.865 73.005 C 236.175 73.052,236.683 73.052,236.993 73.005 C 237.304 72.958,237.050 72.919,236.429 72.919 C 235.808 72.919,235.554 72.958,235.865 73.005 M233.812 80.798 C 234.010 80.850,234.333 80.850,234.531 80.798 C 234.728 80.747,234.566 80.704,234.171 80.704 C 233.776 80.704,233.615 80.747,233.812 80.798 M257.978 84.620 C 257.978 84.656,258.279 84.956,258.645 85.287 L 259.312 85.890 258.710 85.223 C 258.148 84.601,257.978 84.462,257.978 84.620 M233.815 85.730 C 234.127 85.777,234.589 85.776,234.841 85.727 C 235.094 85.678,234.838 85.640,234.274 85.641 C 233.710 85.643,233.503 85.682,233.815 85.730 M236.583 85.727 C 236.837 85.776,237.252 85.776,237.506 85.727 C 237.760 85.678,237.553 85.638,237.045 85.638 C 236.537 85.638,236.329 85.678,236.583 85.727 M62.849 102.822 C 62.849 103.217,62.891 103.379,62.943 103.181 C 62.995 102.984,62.995 102.660,62.943 102.463 C 62.891 102.265,62.849 102.427,62.849 102.822 M60.591 124.577 C 60.591 124.972,60.634 125.133,60.685 124.936 C 60.737 124.738,60.737 124.415,60.685 124.218 C 60.634 124.020,60.591 124.182,60.591 124.577 M52.587 201.334 C 52.587 201.729,52.630 201.891,52.681 201.693 C 52.733 201.496,52.733 201.172,52.681 200.975 C 52.630 200.777,52.587 200.939,52.587 201.334 M265.620 221.242 C 265.620 221.637,265.662 221.798,265.714 221.601 C 265.765 221.403,265.765 221.080,265.714 220.883 C 265.662 220.685,265.620 220.847,265.620 221.242 M267.242 225.357 C 267.227 225.644,267.145 225.968,267.060 226.076 C 266.975 226.184,267.030 226.169,267.180 226.041 C 267.331 225.914,267.413 225.590,267.362 225.321 C 267.271 224.838,267.270 224.839,267.242 225.357 M49.304 232.940 C 49.304 233.335,49.346 233.497,49.398 233.299 C 49.449 233.102,49.449 232.778,49.398 232.581 C 49.346 232.383,49.304 232.545,49.304 232.940 M253.758 251.873 L 253.155 252.540 253.822 251.937 C 254.444 251.375,254.584 251.206,254.425 251.206 C 254.390 251.206,254.090 251.506,253.758 251.873 M63.459 339.608 C 64.216 339.647,65.509 339.648,66.333 339.609 C 67.156 339.570,66.537 339.537,64.956 339.537 C 63.376 339.537,62.702 339.569,63.459 339.608 M116.204 339.608 C 116.961 339.647,118.254 339.648,119.078 339.609 C 119.901 339.570,119.282 339.537,117.701 339.537 C 116.121 339.537,115.447 339.569,116.204 339.608 M174.491 339.608 C 175.248 339.647,176.541 339.648,177.364 339.609 C 178.187 339.570,177.568 339.537,175.988 339.537 C 174.407 339.537,173.734 339.569,174.491 339.608 M207.042 339.815 C 208.657 339.850,211.243 339.850,212.788 339.815 C 214.333 339.780,213.012 339.751,209.851 339.752 C 206.691 339.752,205.426 339.780,207.042 339.815 M234.633 339.815 C 239.572 339.846,247.653 339.846,252.591 339.815 C 257.530 339.785,253.489 339.760,243.612 339.760 C 233.735 339.760,229.695 339.785,234.633 339.815 M276.106 339.815 C 281.843 339.846,291.171 339.846,296.835 339.815 C 302.498 339.785,297.804 339.760,286.403 339.760 C 275.003 339.760,270.369 339.785,276.106 339.815 M309.903 339.806 C 314.774 339.951,319.091 339.956,319.004 339.815 C 318.952 339.731,316.444 339.681,313.431 339.704 C 310.418 339.728,308.830 339.774,309.903 339.806 M345.132 339.815 C 345.079 339.900,347.614 339.969,350.764 339.969 C 353.913 339.969,356.491 339.900,356.491 339.815 C 356.491 339.731,353.956 339.661,350.859 339.661 C 347.761 339.661,345.184 339.731,345.132 339.815 M52.529 343.715 L 51.821 344.484 52.591 343.777 C 53.307 343.119,53.455 342.945,53.298 342.945 C 53.264 342.945,52.918 343.291,52.529 343.715 M136.480 346.088 C 136.480 346.123,136.780 346.423,137.147 346.755 L 137.814 347.358 137.211 346.691 C 136.650 346.069,136.480 345.929,136.480 346.088 M195.382 346.742 C 195.765 347.137,196.125 347.460,196.181 347.460 C 196.238 347.460,195.970 347.137,195.587 346.742 C 195.205 346.347,194.845 346.024,194.789 346.024 C 194.732 346.024,194.999 346.347,195.382 346.742 M64.700 348.833 C 64.897 348.885,65.221 348.885,65.418 348.833 C 65.616 348.781,65.454 348.739,65.059 348.739 C 64.664 348.739,64.502 348.781,64.700 348.833 M70.857 349.038 C 71.054 349.090,71.378 349.090,71.575 349.038 C 71.773 348.987,71.611 348.944,71.216 348.944 C 70.821 348.944,70.659 348.987,70.857 349.038 M116.927 349.455 C 117.292 349.501,117.938 349.502,118.364 349.457 C 118.790 349.413,118.492 349.376,117.701 349.375 C 116.911 349.374,116.563 349.410,116.927 349.455 M175.526 349.457 C 175.949 349.501,176.642 349.501,177.065 349.457 C 177.488 349.413,177.142 349.376,176.296 349.376 C 175.449 349.376,175.103 349.413,175.526 349.457 M150.294 358.235 C 150.296 358.912,150.334 359.165,150.380 358.796 C 150.425 358.427,150.424 357.873,150.378 357.564 C 150.331 357.256,150.293 357.558,150.294 358.235 M150.315 363.776 C 150.315 365.695,150.345 366.508,150.383 365.582 C 150.421 364.656,150.422 363.086,150.384 362.093 C 150.346 361.100,150.315 361.857,150.315 363.776 M161.977 361.416 C 161.977 361.811,162.019 361.973,162.071 361.775 C 162.122 361.578,162.122 361.254,162.071 361.057 C 162.019 360.859,161.977 361.021,161.977 361.416 M103.105 364.289 C 103.105 365.587,103.138 366.119,103.179 365.469 C 103.220 364.820,103.220 363.758,103.179 363.109 C 103.138 362.460,103.105 362.991,103.105 364.289 M161.977 363.879 C 161.977 364.274,162.019 364.436,162.071 364.238 C 162.122 364.041,162.122 363.717,162.071 363.520 C 162.019 363.322,161.977 363.484,161.977 363.879 M161.988 367.060 C 161.989 367.624,162.029 367.831,162.076 367.519 C 162.124 367.207,162.122 366.745,162.074 366.493 C 162.025 366.240,161.986 366.496,161.988 367.060 M150.294 369.523 C 150.296 370.200,150.334 370.452,150.380 370.084 C 150.425 369.715,150.424 369.161,150.378 368.852 C 150.331 368.544,150.293 368.846,150.294 369.523 M87.071 374.038 C 87.073 374.489,87.115 374.650,87.164 374.395 C 87.213 374.139,87.211 373.770,87.160 373.574 C 87.109 373.378,87.068 373.586,87.071 374.038 M75.377 374.346 C 75.377 374.854,75.417 375.062,75.466 374.808 C 75.514 374.554,75.514 374.138,75.466 373.884 C 75.417 373.630,75.377 373.838,75.377 374.346 M107.123 374.808 C 107.974 375.714,108.158 375.877,108.158 375.723 C 108.158 375.690,107.719 375.251,107.183 374.748 L 106.208 373.833 107.123 374.808 M164.187 374.205 C 164.187 374.240,164.487 374.540,164.854 374.872 L 165.521 375.475 164.918 374.808 C 164.356 374.186,164.187 374.046,164.187 374.205 M127.953 376.039 L 127.142 376.911 128.014 376.100 C 128.826 375.345,128.981 375.167,128.826 375.167 C 128.792 375.167,128.400 375.559,127.953 376.039 M195.680 381.375 L 194.869 382.247 195.741 381.436 C 196.553 380.682,196.708 380.503,196.553 380.503 C 196.519 380.503,196.127 380.895,195.680 381.375 M157.414 382.247 C 158.027 382.868,158.575 383.376,158.631 383.376 C 158.688 383.376,158.232 382.868,157.619 382.247 C 157.006 381.626,156.458 381.119,156.402 381.119 C 156.345 381.119,156.801 381.626,157.414 382.247 M148.271 417.034 C 148.271 420.816,148.298 422.363,148.332 420.472 C 148.366 418.581,148.366 415.487,148.332 413.597 C 148.298 411.706,148.271 413.253,148.271 417.034 M311.431 417.034 C 311.431 420.816,311.459 422.363,311.493 420.472 C 311.527 418.581,311.527 415.487,311.493 413.597 C 311.459 411.706,311.431 413.253,311.431 417.034 M89.368 417.034 C 89.368 420.703,89.396 422.204,89.430 420.369 C 89.464 418.535,89.464 415.534,89.430 413.699 C 89.396 411.865,89.368 413.366,89.368 417.034 M177.824 417.034 C 177.824 420.703,177.852 422.204,177.886 420.369 C 177.920 418.535,177.920 415.534,177.886 413.699 C 177.852 411.865,177.824 413.366,177.824 417.034 M139.200 411.390 C 139.202 411.842,139.244 412.003,139.293 411.747 C 139.343 411.492,139.341 411.123,139.289 410.926 C 139.238 410.730,139.198 410.939,139.200 411.390 M110.302 412.987 C 110.247 413.131,110.228 415.048,110.262 417.246 L 110.322 421.242 110.369 417.093 L 110.416 412.944 112.622 412.878 L 114.828 412.812 112.615 412.768 C 110.975 412.736,110.377 412.792,110.302 412.987 M139.409 414.982 C 139.409 415.490,139.449 415.698,139.498 415.444 C 139.547 415.190,139.547 414.774,139.498 414.520 C 139.449 414.266,139.409 414.474,139.409 414.982 M326.578 414.879 C 326.580 415.331,326.622 415.491,326.672 415.236 C 326.721 414.981,326.719 414.611,326.667 414.415 C 326.616 414.219,326.576 414.428,326.578 414.879 M127.040 419.805 C 127.040 421.931,127.082 423.628,127.134 423.576 C 127.275 423.435,127.299 416.200,127.160 416.060 C 127.094 415.994,127.040 417.679,127.040 419.805 M248.398 417.240 C 248.398 417.973,248.435 418.273,248.481 417.907 C 248.526 417.540,248.526 416.939,248.481 416.573 C 248.435 416.206,248.398 416.506,248.398 417.240 M182.453 417.920 C 182.453 417.955,182.753 418.255,183.120 418.587 L 183.787 419.189 183.184 418.522 C 182.622 417.901,182.453 417.761,182.453 417.920 M255.460 418.209 C 255.824 418.254,256.471 418.255,256.896 418.210 C 257.322 418.166,257.024 418.129,256.234 418.128 C 255.444 418.127,255.095 418.163,255.460 418.209 M326.795 419.805 C 326.796 420.482,326.835 420.735,326.880 420.366 C 326.926 419.997,326.925 419.443,326.878 419.134 C 326.831 418.826,326.794 419.128,326.795 419.805 M256.080 420.470 C 256.786 420.510,257.940 420.510,258.645 420.470 C 259.351 420.430,258.774 420.397,257.363 420.397 C 255.952 420.397,255.375 420.430,256.080 420.470 M168.790 421.703 C 170.803 421.745,171.965 421.852,172.177 422.017 C 172.461 422.238,172.465 422.225,172.217 421.909 C 171.968 421.591,171.577 421.555,168.831 421.595 L 165.726 421.640 168.790 421.703 M298.383 421.909 C 298.135 422.225,298.140 422.238,298.424 422.017 C 298.640 421.848,299.858 421.745,302.118 421.703 L 305.490 421.641 302.077 421.595 C 299.038 421.555,298.634 421.589,298.383 421.909 M230.528 422.318 C 231.629 422.355,233.430 422.355,234.531 422.318 C 235.631 422.281,234.731 422.251,232.530 422.251 C 230.328 422.251,229.428 422.281,230.528 422.318 M245.139 422.317 L 248.719 422.380 248.804 423.095 L 248.889 423.811 248.867 423.039 L 248.846 422.268 245.202 422.261 L 241.559 422.253 245.139 422.317 M115.190 423.954 C 115.502 424.002,115.964 424.000,116.216 423.952 C 116.469 423.903,116.213 423.864,115.649 423.866 C 115.085 423.867,114.878 423.907,115.190 423.954 " stroke="none" fill="#c9e2f7" fill-rule="evenodd"></path></g></svg>